<svg width="100" height="100" viewBox="0 0 100 100" fill="none" xmlns="http://www.w3.org/2000/svg">
<path d="M49.6 9.75C49.95 9.75 50.3 9.75 50.65 9.75C52.75 10.45 54.15 12.55 54.15 14.65C54.15 16.75 52.75 18.85 50.65 19.55C50.3 19.55 50.3 19.55 50.3 20.25C50.3 23.75 50.3 27.6 50.3 31.1C50.3 31.1 50.3 31.45 50.65 31.8C50.65 31.8 51.35 31.8 51.7 32.15C56.25 27.6 60.8 23.05 65.35 18.5C63.95 15.7 65 13.25 66.75 11.85C68.85 10.45 71.65 10.45 73.4 12.2C75.15 13.95 75.5 16.75 74.1 18.85C72.7 20.6 69.9 22 67.45 20.25C62.9 24.8 58.35 29.35 53.8 33.9C53.8 34.25 53.8 34.6 54.15 34.95C54.15 34.95 54.15 34.95 54.5 34.95C56.25 34.95 58.35 34.95 60.1 34.95C62.9 34.95 65.7 34.95 68.15 34.95H68.5C69.2 32.85 71.3 31.45 73.75 31.45C76.2 31.45 77.95 33.2 78.65 35.65C79.35 38.45 77.25 41.25 74.45 41.6C72 41.6 69.55 40.55 68.85 38.1C68.85 38.1 68.85 38.1 68.5 38.1C63.95 38.1 59.4 38.1 54.85 38.1H54.5C53.8 39.85 52.75 40.9 51.35 41.25C51.35 42.65 51.35 43.7 51.35 45.1C59.4 45.8 64.65 52.8 63.95 59.8C63.6 67.5 57.3 73.1 49.95 73.1C42.6 73.1 36.65 67.5 35.95 60.5C35.25 52.8 40.5 45.8 48.55 44.75C48.55 43.7 48.55 42.65 48.55 41.6C48.55 40.9 48.55 40.55 47.85 40.2C46.45 39.5 45.4 38.45 45.05 37.05C45.05 37.05 45.05 36.7 44.7 36.7C40.15 36.7 35.6 36.7 31.05 36.7H30.7C30 38.8 27.9 40.2 25.8 40.2C23.35 40.2 21.6 38.45 20.9 36C20.2 33.2 22.3 30.4 25.1 30.05C27.55 30.05 30 31.1 30.7 33.55C30.7 33.55 30.7 33.55 31.05 33.55C35.6 33.55 40.15 33.55 45.05 33.55C45.05 33.55 45.05 33.55 45.4 33.55C45.4 33.2 45.4 32.85 45.75 32.5C41.2 27.95 36.65 23.4 32.1 18.85C29.3 20.25 26.5 18.85 25.1 17.1C23.7 15 24.05 12.2 25.8 10.45C27.55 8.7 30.35 8.35 32.45 10.1C34.2 11.5 35.25 14.3 33.85 16.75C38.4 21.3 42.95 25.85 47.5 30.4C47.5 30.4 48.2 30.4 48.55 30.05C48.55 30.05 48.55 30.05 48.55 29.7C48.55 27.95 48.55 25.85 48.55 24.1C48.55 22.35 48.55 20.25 48.55 18.5V18.15C46.45 17.45 45.05 15.35 45.05 12.9C45.05 10.45 46.8 8.7 49.25 8C49.25 8 49.25 8 49.6 8C49.95 8 50.3 8 50.65 8L49.6 9.75ZM37.35 59.8C37.35 66.1 42.6 71.35 48.9 71.35C55.2 71.35 60.45 66.1 60.45 59.8C60.45 53.5 55.2 48.25 48.9 48.25C42.6 48.25 37.35 53.5 37.35 59.8ZM48.9 12.2C47.5 12.2 46.45 13.25 46.45 14.65C46.45 16.05 47.5 17.1 48.9 17.1C50.3 17.1 51.35 16.05 51.35 14.65C51.35 13.25 50.3 12.2 48.9 12.2ZM28.25 13.6C26.85 13.6 25.8 14.65 25.8 16.05C25.8 17.45 26.85 18.5 28.25 18.5C29.65 18.5 30.7 17.45 30.7 16.05C30.7 14.65 29.65 13.6 28.25 13.6ZM69.55 18.5C70.95 18.5 72 17.45 72 16.05C72 14.65 70.95 13.6 69.55 13.6C68.15 13.6 67.1 14.65 67.1 16.05C67.1 17.45 68.15 18.5 69.55 18.5ZM48.9 39.15C50.3 39.15 51.35 38.1 51.35 36.7C51.35 35.3 50.3 34.25 48.9 34.25C47.5 34.25 46.45 35.3 46.45 36.7C46.45 38.1 47.5 39.15 48.9 39.15ZM75.85 36.7C75.85 35.3 74.8 34.25 73.4 34.25C72 34.25 70.95 35.3 70.95 36.7C70.95 38.1 72 39.15 73.4 39.15C74.8 39.15 75.85 38.1 75.85 36.7ZM27.2 36.7C27.2 35.3 26.15 34.25 24.75 34.25C23.35 34.25 22.3 35.3 22.3 36.7C22.3 38.1 23.35 39.15 24.75 39.15C26.15 39.15 27.2 38.1 27.2 36.7Z" fill="#00B8B1"/>
<path d="M9 79.05H86V81.5H11.8V89.2H88.8V38.1H80.75V35.65H91.25V92H9C9 87.8 9 83.6 9 79.05Z" fill="#00B8B1"/>
<path d="M9 35.3H16.7V37.75H11.45V76.25H9V35.3Z" fill="#00B8B1"/>
<path d="M19.5 86.75V84.3H56.6V82.9H59.05V84.3H75.85V86.75H59.05V88.15H56.6V86.75H19.5Z" fill="#00B8B1"/>
<path d="M16.7 86.75H14.25V84.3H16.7V86.75Z" fill="#00B8B1"/>
<path d="M81.1 86.75H78.65V84.3H81.1V86.75Z" fill="#00B8B1"/>
<path d="M86 83.95V86.4H83.55V83.95H86Z" fill="#00B8B1"/>
<path d="M43.65 52.45C48.55 54.9 53.1 57.35 58 59.8C53.1 62.25 48.55 64.7 43.65 67.15V52.45ZM52.4 59.8C50.3 58.75 48.2 57.7 46.45 56.65V62.6C48.55 61.55 50.65 60.5 52.4 59.45V59.8Z" fill="#00B8B1"/>
</svg>
