<svg width="26" height="24" viewBox="0 0 26 24" fill="none" xmlns="http://www.w3.org/2000/svg">
<path d="M25.3613 0H0.696007V24H25.3613V0Z" fill="white"/>
<path fill-rule="evenodd" clip-rule="evenodd" d="M19.6435 6.55322C20.1278 6.55322 20.558 6.7731 20.8286 7.1132L12.9683 13.3558L5.17792 7.22656C5.43839 6.82275 5.90819 6.55322 6.44446 6.55322H19.6435ZM4.96143 16.9451V8.33428L10.5512 12.7322L4.97295 17.121C4.96535 17.0633 4.96143 17.0046 4.96143 16.9451ZM5.47264 18.0059C5.73292 18.2198 6.07272 18.3494 6.44446 18.3494H19.6435C19.963 18.3494 20.2589 18.2537 20.501 18.0909L14.5612 13.3736L13.4931 14.2219C13.191 14.4619 12.7509 14.4628 12.4477 14.2242L11.3634 13.3712L5.47264 18.0059ZM15.369 12.7322L21.086 17.2725C21.1125 17.1674 21.1265 17.0578 21.1265 16.9451V8.15961L15.369 12.7322Z" fill="#221F1F"/>
</svg>
