<svg width="24" height="24" viewBox="0 0 24 24" fill="none" xmlns="http://www.w3.org/2000/svg">
<path d="M24 12.0003C24 18.061 19.5071 23.0713 13.6709 23.8846C13.125 23.9606 12.5666 24 12 24C11.3456 24 10.7037 23.9475 10.0776 23.8466C4.3644 22.9269 0 17.9725 0 11.9997C0 5.37241 5.37258 0 12 0C18.6274 0 24 5.37241 24 11.9997V12.0003Z" fill="white" fill-opacity="0.5"/>
<path d="M13.6708 9.63522V12.2492H16.9047L16.3927 15.7712H13.6708V23.8847C13.1249 23.9607 12.5666 24.0001 12 24.0001C11.3456 24.0001 10.7036 23.9476 10.0776 23.8467V15.7712H7.09521V12.2492H10.0776V9.05133C10.0776 7.06682 11.6862 5.45752 13.6715 5.45752V5.45959C13.677 5.45959 13.6826 5.45752 13.6881 5.45752H16.9054V8.50269H14.8034C14.178 8.50269 13.6715 9.00918 13.6715 9.63453L13.6708 9.63522Z" fill="#221F1F"/>
</svg>
