<svg width="100" height="100" viewBox="0 0 100 100" fill="none" xmlns="http://www.w3.org/2000/svg">
<path d="M70.7 9C71.4 9 72.1 9 72.8 9C72.8 9 72.8 9 73.15 9C76.65 9.7 79.1 11.45 80.15 14.95C81.2 18.1 81.9 21.25 82.95 24.05C83.65 25.8 82.95 26.5 81.2 26.85C64.4 31.75 47.25 36.65 30.45 41.55C30.45 41.55 30.1 41.55 29.75 41.55C29.75 41.55 30.45 41.55 30.8 41.55C48.3 41.55 66.15 41.55 83.65 41.55C85.4 41.55 85.75 41.9 85.75 43.65C85.75 56.25 85.75 69.2 85.75 81.8C85.75 86 83.3 89.15 79.45 90.55C78.75 90.55 78.4 90.55 77.7 90.9H56.7C56.7 90.9 56.7 90.9 56.35 90.9C55.65 90.55 55.65 89.85 55.65 89.15C55.65 88.45 56.35 88.1 57.05 87.75C57.05 87.75 57.75 87.75 58.1 87.75C64.05 87.75 70 87.75 76.3 87.75C80.5 87.75 82.6 85.3 82.6 81.45C82.6 74.8 82.6 67.8 82.6 61.15V60.45H19.6V61.15C19.6 68.15 19.6 74.8 19.6 81.8C19.6 85.65 22.05 88.1 25.9 88.1C29.05 88.1 31.85 88.1 35 88.1C38.15 88.1 41.3 88.1 44.8 88.1C45.85 88.1 46.55 88.45 46.55 89.5C46.55 90.55 46.2 90.9 45.5 91.25H24.5C19.25 89.85 16.8 86.7 16.8 81.45C16.8 69.55 16.8 57.3 16.8 45.4C16.8 44.7 16.8 43.65 16.45 42.95C15.75 40.85 15.05 38.75 14.7 36.65C14.7 35.6 14 34.2 14 32.8C14 28.6 16.45 24.75 20.65 23.7C33.95 19.85 46.9 16 60.2 12.15C64.05 11.1 67.55 10.05 71.4 9H70.7ZM79.8 24.4C79.1 21.6 78.4 18.8 77.35 16C76.3 13.2 73.5 11.8 70.7 12.5C67.9 13.2 65.1 13.9 62.3 14.95C62.3 14.95 61.95 14.95 61.6 14.95C65.45 18.45 68.95 22.3 72.8 25.8C72.8 25.8 73.15 25.8 73.5 25.8C75.6 25.1 77.35 24.75 79.45 24.05L79.8 24.4ZM33.25 38.05C29.4 34.55 25.55 30.7 22.05 27.2C22.05 27.2 22.05 27.2 21.7 27.2C18.9 27.55 16.45 30.7 17.15 33.85C17.85 36.3 18.55 38.75 19.25 41.2C19.25 41.55 19.25 41.9 19.6 42.6C24.5 41.2 29.05 39.8 33.6 38.4L33.25 38.05ZM81.9 45.75C80.15 45.75 78.05 45.75 76.3 45.75C75.6 45.75 75.6 45.75 75.25 46.45C73.15 49.95 71.4 53.45 69.3 56.95C69.3 56.95 69.3 57.3 68.95 57.65H82.95V45.75H81.9ZM19.6 57.3C21.7 57.3 23.8 57.3 26.25 57.3C26.95 57.3 26.95 57.3 27.3 56.6C29.4 53.1 31.15 49.6 33.25 46.1C33.25 46.1 33.25 45.75 33.6 45.4H19.6V57.3ZM49.7 18.45C49.7 18.45 50.05 18.45 50.4 18.8C53.55 21.95 56.7 24.75 59.85 27.9C60.9 28.95 61.95 29.3 63.7 28.95C65.8 28.25 67.9 27.55 70 27.2C70 27.2 70 27.2 70 26.85C66.5 23.35 62.65 19.85 59.15 16.35C59.15 16.35 58.45 16.35 58.1 16.35C56.7 16.35 55.3 17.05 54.25 17.4C52.85 17.75 51.8 18.1 50.4 18.45H49.7ZM57.4 30.7C57.4 30.7 57.4 30.7 57.4 30.35C53.9 26.85 50.05 23.35 46.55 19.85C46.55 19.85 45.85 19.85 45.5 19.85C44.45 19.85 43.05 20.55 42 20.9C40.6 21.25 39.2 21.6 37.8 22.3C41.3 25.8 45.15 29.3 49 32.8C49 32.8 49.7 32.8 50.05 32.8C51.45 32.45 53.2 32.1 54.6 31.4C55.65 31.4 56.7 30.7 58.1 30.35L57.4 30.7ZM45.5 34.2C45.15 34.2 44.8 33.85 44.8 33.5C41.65 30.35 38.15 27.2 35 24.05C33.95 23 33.25 23 32.2 23.35C30.1 24.05 27.65 24.75 25.2 25.45C25.55 25.45 25.9 25.8 26.25 26.15C29.75 29.3 32.9 32.45 36.05 35.6C36.75 36.3 37.45 36.65 38.5 36.3C40.95 35.6 43.05 34.9 45.85 34.2H45.5ZM43.4 57.3H44.1C46.55 57.3 49 57.3 51.45 57.3C52.15 57.3 52.15 57.3 52.5 56.6C54.6 53.1 56.35 49.6 58.45 46.1C58.45 46.1 58.45 45.75 58.8 45.4H58.1C55.65 45.4 53.2 45.4 50.75 45.4C50.05 45.4 50.05 45.4 49.7 46.1C47.6 49.6 45.85 53.1 43.75 56.6C43.75 56.6 43.75 56.95 43.4 57.3ZM71.75 45.75C68.95 45.75 66.5 45.75 63.7 45.75C63.7 45.75 63 45.75 63 46.45C60.9 49.95 58.8 53.45 56.7 56.95C56.7 56.95 56.7 57.3 56.7 57.65C59.5 57.65 61.95 57.65 64.75 57.65C65.45 57.65 65.45 57.65 65.8 56.95C67.9 53.45 69.65 49.95 71.75 46.45C71.75 46.45 71.75 46.1 71.75 45.75ZM46.55 45.75H45.5C43.05 45.75 40.6 45.75 38.5 45.75C37.8 45.75 37.45 45.75 37.45 46.45C35.35 49.95 33.6 53.45 31.5 56.95C31.5 56.95 31.5 57.3 31.15 57.65H31.85C34.3 57.65 36.75 57.65 39.2 57.65C39.9 57.65 39.9 57.65 40.25 56.95C42.35 53.45 44.1 49.95 46.2 46.45C46.2 46.45 46.2 46.1 46.55 45.75Z" fill="#00B8B1"/>
<path d="M50.75 91.6C50.75 91.6 50.75 91.6 50.4 91.6C49.7 91.25 49.7 90.55 49.7 89.85C49.7 89.15 50.4 88.8 51.1 88.8C51.8 88.8 52.5 89.15 52.5 89.85C52.5 90.55 52.5 91.25 51.8 91.6C51.8 91.6 51.8 91.6 51.45 91.6H50.75Z" fill="#00B8B1"/>
<path d="M44.8 74.1C44.8 71.65 44.8 68.85 44.8 66.4C44.8 64.65 45.85 63.95 47.6 64.65C52.15 67.1 56.7 69.9 60.9 72.35C62.3 73.4 62.3 74.8 60.9 75.5C56.35 77.95 51.8 80.75 47.25 83.2C45.85 83.9 44.45 83.2 44.45 81.8C44.45 79 44.45 76.55 44.45 73.75L44.8 74.1ZM57.4 74.45C54.25 72.7 51.1 70.95 48.3 69.2V80.05C51.45 78.3 54.25 76.55 57.4 74.8V74.45Z" fill="#00B8B1"/>
</svg>
