<svg width="25" height="24" viewBox="0 0 25 24" fill="none" xmlns="http://www.w3.org/2000/svg">
<path d="M24.3213 12.0003C24.3213 18.061 19.8284 23.0713 13.9921 23.8846C13.4462 23.9606 12.8879 24 12.3213 24C11.6669 24 11.025 23.9475 10.3989 23.8466C4.68568 22.9269 0.321289 17.9725 0.321289 11.9997C0.321289 5.37241 5.69387 0 12.3213 0C18.9487 0 24.3213 5.37241 24.3213 11.9997V12.0003Z" fill="white" fill-opacity="0.5"/>
<path d="M16.079 4.79688H8.56289C6.48642 4.79688 4.79761 6.48564 4.79761 8.56205V15.4381C4.79761 17.5145 6.48642 19.2032 8.56289 19.2032H16.079C18.1554 19.2032 19.8442 17.5145 19.8442 15.4381V8.56205C19.8442 6.48564 18.1554 4.79688 16.079 4.79688ZM6.12572 8.56205C6.12572 7.21809 7.21889 6.12495 8.56289 6.12495H16.079C17.423 6.12495 18.5161 7.21809 18.5161 8.56205V15.4381C18.5161 16.782 17.423 17.8752 16.079 17.8752H8.56289C7.21889 17.8752 6.12572 16.782 6.12572 15.4381V8.56205Z" fill="#221F1F"/>
<path d="M12.3206 15.5028C14.2519 15.5028 15.8233 13.9315 15.8233 12.0002C15.8233 10.0689 14.2519 8.49756 12.3206 8.49756C10.3892 8.49756 8.81787 10.0689 8.81787 12.0002C8.81787 13.9315 10.3892 15.5028 12.3206 15.5028ZM12.3206 9.82632C13.5195 9.82632 14.4945 10.8013 14.4945 12.0002C14.4945 13.199 13.5195 14.174 12.3206 14.174C11.1217 14.174 10.1467 13.199 10.1467 12.0002C10.1467 10.8013 11.1217 9.82632 12.3206 9.82632Z" fill="#221F1F"/>
<path d="M16.148 9.06307C16.6683 9.06307 17.0919 8.63949 17.0919 8.11918C17.0919 7.59887 16.6683 7.17529 16.148 7.17529C15.6277 7.17529 15.2041 7.59887 15.2041 8.11918C15.2041 8.63949 15.6277 9.06307 16.148 9.06307Z" fill="#221F1F"/>
</svg>
