<svg width="25" height="24" viewBox="0 0 25 24" fill="none" xmlns="http://www.w3.org/2000/svg">
<path d="M24.0881 12.0004C24.0881 18.061 19.5952 23.0713 13.759 23.8846C13.2131 23.9606 12.6548 24 12.0882 24C11.4338 24 10.7918 23.9475 10.1658 23.8466C4.45252 22.9269 0.0881348 17.9725 0.0881348 11.9997C0.0881348 5.37242 5.46071 0 12.0882 0C18.7156 0 24.0881 5.37242 24.0881 11.9997V12.0004Z" fill="white" fill-opacity="0.5"/>
<path d="M5.92706 7.94777C5.60713 7.65064 5.44751 7.28304 5.44751 6.84565C5.44751 6.40825 5.60713 6.02406 5.92706 5.72694C6.247 5.42981 6.65883 5.28125 7.16396 5.28125C7.66908 5.28125 8.06435 5.42981 8.38359 5.72694C8.70353 6.02406 8.86315 6.3972 8.86315 6.84565C8.86315 7.2941 8.70353 7.65064 8.38359 7.94777C8.06366 8.24489 7.65734 8.39345 7.16396 8.39345C6.67058 8.39345 6.247 8.24489 5.92706 7.94777ZM8.59364 9.65174V18.7568H5.717V9.65174H8.59364Z" fill="#221F1F"/>
<path d="M18.1724 10.5507C18.7992 11.2313 19.1129 12.1662 19.1129 13.3561V18.5965H16.38V13.7257C16.38 13.126 16.2245 12.6595 15.9135 12.3272C15.6026 11.9948 15.1845 11.829 14.6594 11.829C14.1342 11.829 13.7161 11.9955 13.4052 12.3272C13.0942 12.6595 12.9387 13.126 12.9387 13.7257V18.5965H10.1899V9.62681H12.9387V10.8167C13.2172 10.4201 13.5924 10.107 14.0644 9.87625C14.5357 9.64616 15.0664 9.53076 15.6558 9.53076C16.7061 9.53076 17.545 9.87141 18.1717 10.5513L18.1724 10.5507Z" fill="#221F1F"/>
</svg>
