<svg width="120" height="50" viewBox="0 0 120 50" fill="none" xmlns="http://www.w3.org/2000/svg">
<mask id="mask0_9_1131" style="mask-type:luminance" maskUnits="userSpaceOnUse" x="0" y="0" width="120" height="50">
<path d="M120 0H0V49.9416H120V0Z" fill="white"/>
</mask>
<g mask="url(#mask0_9_1131)">
<path d="M118.739 16.2067C118.291 15.8094 117.695 15.5238 116.955 15.3433C116.211 15.166 115.286 15.0757 114.178 15.0757H104.337C104.046 15.0757 103.898 15.2218 103.898 15.5156V17.7579C103.898 18.0518 104.046 18.1962 104.337 18.1962H113.835C114.373 18.1962 114.813 18.2438 115.156 18.3325C115.497 18.4178 115.767 18.5639 115.964 18.7691C116.157 18.971 116.297 19.2435 116.379 19.5866C116.461 19.9264 116.504 20.3548 116.504 20.8752V23.8184C116.504 24.3404 116.463 24.7689 116.379 25.1086C116.297 25.4501 116.157 25.7242 115.964 25.9278C115.767 26.1313 115.497 26.2774 115.156 26.3661C114.811 26.4563 114.371 26.5007 113.835 26.5007H104.337C104.046 26.5007 103.898 26.6468 103.898 26.9389V29.1829C103.898 29.4751 104.046 29.6179 104.337 29.6179H114.178C115.286 29.6179 116.211 29.5325 116.955 29.3536C117.695 29.1763 118.293 28.8891 118.739 28.4869C119.188 28.088 119.511 27.5775 119.706 26.9537C119.905 26.3299 120 25.5765 120 24.6983V19.9986C120 19.1253 119.905 18.3702 119.706 17.7448C119.509 17.1177 119.188 16.6056 118.739 16.2067Z" fill="white"/>
</g>
<mask id="mask1_9_1131" style="mask-type:luminance" maskUnits="userSpaceOnUse" x="0" y="0" width="120" height="50">
<path d="M120 0H0V49.9416H120V0Z" fill="white"/>
</mask>
<g mask="url(#mask1_9_1131)">
<path d="M100.617 15.0314H98.2187C97.8576 15.0314 97.6803 15.2169 97.6803 15.5944V23.8447C97.6803 24.3667 97.6459 24.7968 97.5818 25.1382C97.5162 25.4813 97.3931 25.7538 97.2141 25.954C97.0352 26.1576 96.7808 26.3004 96.4558 26.394C96.1291 26.481 95.6957 26.5286 95.1573 26.5286H93.1579C92.6195 26.5286 92.1812 26.481 91.8365 26.394C91.4951 26.3004 91.221 26.1576 91.0174 25.954C90.8122 25.7521 90.671 25.4813 90.589 25.1382C90.5069 24.7968 90.4675 24.3683 90.4675 23.8447L90.4642 19.9789C90.4642 19.1023 90.3674 18.3489 90.1704 17.7235C89.9767 17.0997 89.6533 16.5875 89.2035 16.1903C88.7538 15.7898 88.1562 15.4959 87.4061 15.3121C86.6526 15.1249 85.7334 15.0314 84.6401 15.0314H84.1066C83.0002 15.0314 82.0711 15.1266 81.3292 15.3121C80.5872 15.4959 79.9913 15.7898 79.5432 16.1903C79.095 16.5859 78.7733 17.0997 78.578 17.7235C78.381 18.3489 78.2809 19.1023 78.2809 19.9789V24.5128C78.2809 24.5243 78.2874 24.5341 78.2874 24.5456C78.271 24.7656 78.2464 24.9642 78.2136 25.1382C78.1495 25.4813 78.0264 25.7538 77.8491 25.954C77.6686 26.1576 77.4141 26.3004 77.0858 26.394C76.7608 26.481 76.3291 26.5286 75.7923 26.5286H55.7231H54.6282C54.0881 26.5286 53.6548 26.481 53.3298 26.394C53.0031 26.3004 52.7503 26.1576 52.5714 25.954C52.3925 25.7521 52.2693 25.4813 52.2037 25.1382C52.1397 24.7968 52.1035 24.3683 52.1035 23.8447V15.5944C52.1035 15.2169 51.9263 15.0314 51.5684 15.0314H49.1702C48.7942 15.0314 48.6055 15.2169 48.6055 15.5944V24.6983C48.6055 25.5765 48.7072 26.3283 48.9009 26.9537C49.0979 27.5791 49.418 28.0897 49.8678 28.4869C50.3176 28.8874 50.9118 29.1747 51.6538 29.352C52.3957 29.5309 53.3216 29.6179 54.4312 29.6179H55.5803H75.9877C77.0957 29.6179 78.0231 29.5326 78.7635 29.352C79.5054 29.1747 80.1013 28.8874 80.5511 28.4869C81.0009 28.0897 81.3226 27.5791 81.5179 26.9537C81.7116 26.3283 81.8101 25.5765 81.8101 24.6983V20.1644V20.1611C81.8315 19.9247 81.8627 19.713 81.907 19.5275C81.9874 19.1762 82.1319 18.9021 82.337 18.6969C82.539 18.495 82.8131 18.3472 83.1529 18.2586C83.4976 18.1683 83.931 18.1256 84.4513 18.1256H84.4694C84.993 18.1256 85.4133 18.1683 85.7416 18.2586C86.0649 18.3472 86.3227 18.4966 86.5114 18.6969C86.7002 18.9021 86.8266 19.1746 86.8923 19.5275C86.9563 19.8755 86.9891 20.3023 86.9891 20.8062V24.5128C86.9891 24.5128 86.9908 24.5177 86.9908 24.521V24.6999C86.9908 25.5781 87.0893 26.3299 87.2862 26.9554C87.4816 27.5808 87.8033 28.0913 88.2498 28.4885C88.6996 28.8891 89.2987 29.1763 90.0489 29.3536C90.7991 29.5326 91.7216 29.6196 92.8165 29.6196H95.3543C96.4623 29.6196 97.3898 29.5342 98.1334 29.3536C98.8754 29.1763 99.4696 28.8891 99.9177 28.4885C100.366 28.0913 100.689 27.5808 100.883 26.9554C101.08 26.3299 101.178 25.5781 101.178 24.6999V15.5961C101.178 15.2169 100.991 15.0314 100.617 15.0314Z" fill="white"/>
</g>
<mask id="mask2_9_1131" style="mask-type:luminance" maskUnits="userSpaceOnUse" x="0" y="0" width="120" height="50">
<path d="M120 0H0V49.9416H120V0Z" fill="white"/>
</mask>
<g mask="url(#mask2_9_1131)">
<path d="M67.9097 31.8488H65.5098C65.1356 31.8488 64.9468 32.026 64.9468 32.3839V34.6984C64.9468 35.0743 65.1356 35.2615 65.5098 35.2615H67.9097C68.2692 35.2615 68.4481 35.0727 68.4481 34.6984V32.3839C68.4465 32.026 68.2676 31.8488 67.9097 31.8488Z" fill="white"/>
</g>
<mask id="mask3_9_1131" style="mask-type:luminance" maskUnits="userSpaceOnUse" x="0" y="0" width="120" height="50">
<path d="M120 0H0V49.9416H120V0Z" fill="white"/>
</mask>
<g mask="url(#mask3_9_1131)">
<path d="M96.3934 31.8488H93.9935C93.6193 31.8488 93.4321 32.026 93.4321 32.3839V34.6984C93.4321 35.0743 93.6209 35.2615 93.9935 35.2615H96.3934C96.7496 35.2615 96.9302 35.0727 96.9302 34.6984V32.3839C96.9302 32.026 96.7496 31.8488 96.3934 31.8488Z" fill="white"/>
</g>
<mask id="mask4_9_1131" style="mask-type:luminance" maskUnits="userSpaceOnUse" x="0" y="0" width="120" height="50">
<path d="M120 0H0V49.9416H120V0Z" fill="white"/>
</mask>
<g mask="url(#mask4_9_1131)">
<path d="M62.7913 31.8488H60.3914C60.0155 31.8488 59.8284 32.026 59.8284 32.3839V34.6984C59.8284 35.0743 60.0155 35.2615 60.3914 35.2615H62.7913C63.1508 35.2615 63.3297 35.0727 63.3297 34.6984V32.3839C63.3297 32.026 63.1508 31.8488 62.7913 31.8488Z" fill="white"/>
</g>
<mask id="mask5_9_1131" style="mask-type:luminance" maskUnits="userSpaceOnUse" x="0" y="0" width="120" height="50">
<path d="M120 0H0V49.9416H120V0Z" fill="white"/>
</mask>
<g mask="url(#mask5_9_1131)">
<path d="M73.5827 1.71377C73.4153 1.56767 73.1937 1.45933 72.9179 1.39367C72.6454 1.32801 72.3023 1.29518 71.887 1.29518H68.2379C68.1296 1.29518 68.0738 1.35099 68.0738 1.45769V2.28994C68.0738 2.39828 68.1296 2.45245 68.2379 2.45245H71.7623C71.9609 2.45245 72.1234 2.47051 72.2498 2.50334C72.3762 2.53617 72.478 2.5887 72.5486 2.66585C72.6257 2.73972 72.675 2.84313 72.7062 2.96953C72.7341 3.09429 72.7521 3.25516 72.7521 3.44886V5.47285C72.7521 5.66491 72.7341 5.82578 72.7062 5.95217C72.675 6.07857 72.6257 6.18034 72.5486 6.25585C72.478 6.33136 72.3762 6.38553 72.2498 6.42165C72.1234 6.45119 71.9609 6.47089 71.7623 6.47089H71.4717H71.2436C71.2862 6.27391 71.3092 6.05231 71.3092 5.80115V5.11828C71.3092 4.7949 71.2731 4.5142 71.2009 4.28275C71.1287 4.04965 71.0088 3.86252 70.8447 3.71478C70.6756 3.56704 70.454 3.45706 70.1766 3.38648C69.8959 3.31917 69.5528 3.2847 69.149 3.2847H68.6532C68.2429 3.2847 67.8981 3.31917 67.6224 3.38648C67.3482 3.45706 67.125 3.56704 66.9576 3.71478C66.7934 3.86252 66.6736 4.04965 66.5981 4.28275C66.5275 4.5142 66.4897 4.7949 66.4897 5.11828V5.80115C66.4897 6.05231 66.5127 6.27391 66.5554 6.47089H62.3662C62.166 6.47089 62.0034 6.45119 61.8754 6.42165C61.749 6.38553 61.6505 6.333 61.5767 6.25585C61.5061 6.18034 61.4503 6.07857 61.424 5.95217C61.3912 5.82578 61.3764 5.66655 61.3764 5.47285V4.32707H61.378V1.04567C61.378 0.912708 61.3091 0.847046 61.1778 0.847046H60.2831C60.1469 0.847046 60.0796 0.912708 60.0796 1.04567V4.10054V4.14486V5.79951C60.0796 6.12453 60.1157 6.40359 60.1896 6.63669C60.2618 6.86814 60.3816 7.05856 60.5491 7.20465C60.7149 7.35403 60.9348 7.46237 61.2122 7.52803C61.488 7.59369 61.8311 7.62488 62.2431 7.62488H68.2429H68.6598H69.1556H71.4783H71.892C72.3073 7.62488 72.6503 7.59369 72.9228 7.52803C73.1986 7.46237 73.4202 7.35403 73.5877 7.20465C73.7534 7.05856 73.8733 6.86814 73.9439 6.63669C74.0161 6.40359 74.0538 6.12617 74.0538 5.79951V3.12055C74.0538 2.79553 74.0177 2.51483 73.9439 2.28338C73.8684 2.05356 73.7469 1.86315 73.5827 1.71377ZM70.019 5.57298C70.019 5.76504 70.0059 5.92591 69.9747 6.05231C69.9435 6.1787 69.8926 6.27719 69.8171 6.35434C69.7711 6.39867 69.717 6.43806 69.6497 6.46925H68.2379H68.1624C68.0984 6.43806 68.0426 6.40031 67.9966 6.35434C67.9211 6.27719 67.867 6.1787 67.8374 6.05231C67.8079 5.92591 67.7898 5.76504 67.7898 5.57298V5.33332C67.7898 5.14619 67.8062 4.99024 67.8374 4.86384C67.8653 4.73745 67.9195 4.63239 67.9966 4.55688C68.0721 4.47809 68.1739 4.42392 68.3003 4.39273C68.4267 4.36318 68.5859 4.34677 68.7813 4.34677H69.0226C69.2212 4.34677 69.3854 4.36318 69.5118 4.39273C69.6398 4.42228 69.7399 4.47809 69.8171 4.55688C69.8926 4.63239 69.9435 4.73745 69.9747 4.86384C70.0042 4.9886 70.019 5.14619 70.019 5.33332V5.57298Z" fill="white"/>
</g>
<mask id="mask6_9_1131" style="mask-type:luminance" maskUnits="userSpaceOnUse" x="0" y="0" width="120" height="50">
<path d="M120 0H0V49.9416H120V0Z" fill="white"/>
</mask>
<g mask="url(#mask6_9_1131)">
<path d="M93.3172 2.64942C93.1498 2.50332 92.9281 2.39662 92.654 2.32768C92.3782 2.26202 92.0335 2.22919 91.6231 2.22919H87.974C87.8657 2.22919 87.8115 2.285 87.8115 2.39498V3.22559C87.8115 3.33721 87.8657 3.38646 87.974 3.38646H91.4967C91.6954 3.38646 91.8612 3.40452 91.9875 3.43899C92.1139 3.47346 92.2141 3.52599 92.2879 3.6015C92.3602 3.67701 92.4111 3.7755 92.4406 3.90354C92.4718 4.02993 92.4882 4.18916 92.4882 4.38122V5.47283C92.4882 5.66653 92.4718 5.82576 92.4406 5.95215C92.4111 6.07855 92.3602 6.17868 92.2879 6.25583C92.2157 6.33134 92.1139 6.38552 91.9875 6.42163C91.8595 6.45118 91.6954 6.47087 91.4967 6.47087H87.974C87.8657 6.47087 87.8115 6.5234 87.8115 6.63174V7.46564C87.8115 7.57398 87.8657 7.62486 87.974 7.62486H91.6231C92.0335 7.62486 92.3782 7.59367 92.654 7.52801C92.9281 7.46235 93.1498 7.35401 93.3172 7.20463C93.483 7.05854 93.6012 6.86976 93.675 6.63831C93.7473 6.40521 93.7834 6.1278 93.7834 5.80114V4.05784C93.7834 3.73282 93.7473 3.45376 93.675 3.22067C93.6028 2.98921 93.483 2.79879 93.3172 2.64942Z" fill="white"/>
</g>
<mask id="mask7_9_1131" style="mask-type:luminance" maskUnits="userSpaceOnUse" x="0" y="0" width="120" height="50">
<path d="M120 0H0V49.9416H120V0Z" fill="white"/>
</mask>
<g mask="url(#mask7_9_1131)">
<path d="M117.454 2.66255H116.563C116.43 2.66255 116.364 2.73149 116.364 2.87102V5.48268C116.364 5.67638 116.349 5.83561 116.318 5.962C116.287 6.09004 116.236 6.19017 116.161 6.26404C116.083 6.33955 115.983 6.39536 115.855 6.42819C115.727 6.46102 115.565 6.47744 115.364 6.47744H114.951C114.752 6.47744 114.591 6.46102 114.47 6.42819C114.348 6.39536 114.255 6.34119 114.188 6.26404C114.122 6.19017 114.076 6.09004 114.051 5.962C114.028 5.83396 114.018 5.67638 114.018 5.48268V2.87102C114.018 2.73149 113.948 2.66255 113.818 2.66255H112.925C112.786 2.66255 112.717 2.73149 112.717 2.87102V5.54834C112.715 5.71249 112.702 5.85038 112.676 5.96364C112.643 6.09168 112.59 6.19181 112.515 6.26568C112.439 6.34119 112.339 6.397 112.209 6.42983C112.083 6.46267 111.921 6.47908 111.72 6.47908H111.308C111.108 6.47908 110.945 6.46267 110.827 6.42983C110.704 6.397 110.611 6.34283 110.545 6.26568C110.478 6.19181 110.432 6.09168 110.409 5.96364C110.386 5.83561 110.373 5.67802 110.373 5.48432V2.87266C110.373 2.73313 110.305 2.66419 110.172 2.66419H109.283C109.145 2.66419 109.074 2.73313 109.074 2.87266V5.49417C109.074 5.68294 109.059 5.83889 109.03 5.96529C109 6.09333 108.946 6.19346 108.871 6.26733C108.797 6.34284 108.695 6.39865 108.567 6.43148C108.439 6.46431 108.276 6.48072 108.078 6.48072H107.185C106.983 6.48072 106.825 6.46431 106.702 6.43148C106.582 6.39865 106.49 6.34448 106.423 6.26733C106.357 6.19346 106.31 6.09333 106.287 5.96529C106.264 5.83725 106.251 5.67966 106.251 5.48596V5.00336C106.247 5.00336 106.246 5.00336 106.243 5.00336V2.87266C106.243 2.73313 106.17 2.66419 106.034 2.66419H105.144C105.011 2.66419 104.946 2.73313 104.946 2.87266V5.48432C104.946 5.67802 104.933 5.83725 104.91 5.96364C104.883 6.09168 104.841 6.19181 104.772 6.26568C104.704 6.34119 104.609 6.397 104.488 6.42983C104.37 6.46267 104.209 6.47908 104.01 6.47908H103.119C102.918 6.47908 102.753 6.46267 102.626 6.42983C102.5 6.397 102.396 6.34283 102.324 6.26568C102.247 6.19181 102.195 6.09168 102.165 5.96364C102.132 5.83561 102.121 5.67802 102.121 5.48432V5.12319V4.06605C102.121 3.74103 102.083 3.46197 102.009 3.23216C101.937 2.99578 101.819 2.80865 101.653 2.65927C101.485 2.51317 101.262 2.40319 100.985 2.33424C100.707 2.26366 100.366 2.22919 99.9588 2.22919H97.4161C97.0041 2.22919 96.6626 2.26366 96.3869 2.33424C96.1111 2.40319 95.8911 2.51317 95.722 2.65927C95.5579 2.80865 95.4381 2.99578 95.3658 3.23216C95.292 3.46033 95.2559 3.73939 95.2559 4.06605V5.80278C95.2559 6.12944 95.292 6.40686 95.3658 6.63995C95.4381 6.87305 95.5579 7.06182 95.722 7.20792C95.8895 7.35565 96.1111 7.46399 96.3869 7.52965C96.6626 7.59532 97.0041 7.62814 97.4161 7.62814H100.822V8.59172C100.822 8.79198 100.807 8.94957 100.773 9.07104C100.739 9.19087 100.684 9.28444 100.61 9.3501C100.535 9.4174 100.435 9.46336 100.305 9.48635C100.179 9.50933 100.02 9.52246 99.8258 9.52246H96.2145C96.075 9.52246 96.006 9.5914 96.006 9.71944V10.6091C96.006 10.7454 96.075 10.816 96.2145 10.816H100.285C100.614 10.816 100.893 10.7799 101.126 10.706C101.361 10.6354 101.551 10.5172 101.697 10.3514C101.847 10.1856 101.953 9.96403 102.021 9.68989C102.085 9.41412 102.121 9.07104 102.121 8.6623V7.5592C102.369 7.60188 102.656 7.62486 102.991 7.62486H104.077C104.489 7.62486 104.832 7.59367 105.11 7.52637C105.295 7.48041 105.456 7.41475 105.594 7.33267C105.73 7.41475 105.893 7.48205 106.08 7.52637C106.354 7.59203 106.697 7.62486 107.111 7.62486H108.203C108.608 7.62486 108.949 7.59367 109.228 7.52637C109.417 7.48041 109.578 7.41475 109.719 7.33267C109.856 7.41475 110.015 7.48205 110.204 7.52637C110.481 7.59203 110.822 7.62486 111.233 7.62486H111.848C112.254 7.62486 112.595 7.59367 112.874 7.52637C113.063 7.48041 113.226 7.41475 113.36 7.33267C113.496 7.41475 113.659 7.48205 113.848 7.52637C114.122 7.59203 114.467 7.62486 114.879 7.62486H115.491C115.898 7.62486 116.238 7.59367 116.52 7.52637C116.798 7.46071 117.021 7.35237 117.188 7.20299C117.354 7.0569 117.472 6.86812 117.544 6.63667C117.617 6.40357 117.656 6.12451 117.656 5.79949V2.87102C117.656 2.73149 117.585 2.66255 117.454 2.66255ZM100.826 6.46923H97.5392C97.3455 6.46923 97.1846 6.45282 97.055 6.42163C96.9286 6.39208 96.8284 6.33627 96.7529 6.26076C96.6774 6.18197 96.6249 6.08019 96.5937 5.95215C96.5641 5.82412 96.5494 5.66489 96.5494 5.47447V4.38286C96.5494 4.19573 96.5641 4.03978 96.5937 3.90846C96.6249 3.77714 96.6774 3.67537 96.7529 3.59986C96.8284 3.52435 96.9286 3.47018 97.055 3.43735C97.1846 3.40123 97.3455 3.38646 97.5392 3.38646H99.8242C100.024 3.38646 100.189 3.40123 100.315 3.43735C100.441 3.47018 100.543 3.52435 100.62 3.59986C100.696 3.67373 100.747 3.77714 100.778 3.90846C100.807 4.03978 100.824 4.19573 100.824 4.38286V6.46923H100.826Z" fill="white"/>
</g>
<mask id="mask8_9_1131" style="mask-type:luminance" maskUnits="userSpaceOnUse" x="0" y="0" width="120" height="50">
<path d="M120 0H0V49.9416H120V0Z" fill="white"/>
</mask>
<g mask="url(#mask8_9_1131)">
<path d="M84.1918 7.62486C84.6021 7.62486 84.9469 7.59367 85.221 7.528C85.4968 7.46234 85.72 7.354 85.8858 7.20462C86.0533 7.05689 86.1731 6.86811 86.2437 6.63666C86.3175 6.40356 86.3537 6.12451 86.3537 5.79948V2.87101C86.3537 2.73149 86.2831 2.66254 86.1452 2.66254H85.2538C85.1225 2.66254 85.0569 2.73149 85.0569 2.87101V5.48267C85.0569 5.67637 85.0437 5.8356 85.0207 5.962C84.9978 6.09003 84.9518 6.19017 84.8845 6.26403C84.8172 6.34119 84.7236 6.39536 84.6038 6.42819C84.484 6.46102 84.3231 6.47743 84.1228 6.47743H83.3809C83.1789 6.47743 83.0181 6.45938 82.89 6.42819C82.7636 6.39536 82.6619 6.34119 82.588 6.26403C82.5141 6.19017 82.46 6.09003 82.4304 5.962C82.4124 5.89634 82.4009 5.81918 82.3943 5.73547V4.06276C82.3943 3.73774 82.3582 3.45868 82.2843 3.23051C82.2105 2.99413 82.0906 2.80699 81.9265 2.65762C81.759 2.51152 81.5374 2.40154 81.2584 2.3326C80.9793 2.26201 80.6379 2.22754 80.2324 2.22754H77.6897C77.2777 2.22754 76.9346 2.26201 76.6605 2.3326C76.3847 2.40154 76.1631 2.51152 75.9957 2.65762C75.8315 2.80699 75.7117 2.99413 75.6362 3.23051C75.5656 3.45868 75.5278 3.73774 75.5278 4.06276V5.79948C75.5278 6.12779 75.5656 6.40356 75.6362 6.63666C75.7117 6.86976 75.8299 7.05853 75.9957 7.20627C76.1631 7.354 76.3847 7.46234 76.6605 7.528C76.9346 7.59202 77.2777 7.6265 77.6897 7.6265H81.0959V8.59007C81.0959 8.79033 81.0778 8.94956 81.0433 9.06939C81.0089 9.18922 80.958 9.28279 80.8808 9.34845C80.8053 9.41575 80.7035 9.46171 80.5771 9.4847C80.4508 9.50768 80.2882 9.52081 80.0962 9.52081H76.4848C76.3453 9.52081 76.2764 9.58975 76.2764 9.71943V10.6075C76.2764 10.7437 76.3453 10.8143 76.4848 10.8143H80.5574C80.8825 10.8143 81.1632 10.7782 81.3963 10.7043C81.6294 10.6338 81.8214 10.5156 81.9692 10.3498C82.1185 10.184 82.2252 9.96238 82.2909 9.68824C82.3582 9.41247 82.3927 9.07103 82.3927 8.6623V7.55919C82.6373 7.60351 82.9229 7.62486 83.2512 7.62486H84.1918ZM81.0991 5.44163C81.0942 5.44163 81.0942 5.44163 81.0893 5.44492V5.79948C81.0893 5.89633 81.0942 5.98662 81.0991 6.07526V6.46922H77.8128C77.6191 6.46922 77.4583 6.45445 77.3319 6.42162C77.2055 6.39207 77.102 6.33626 77.0282 6.26075C76.9527 6.18196 76.9001 6.08019 76.869 5.95215C76.8361 5.82411 76.823 5.66488 76.823 5.47446V4.38285C76.823 4.19572 76.8361 4.03978 76.869 3.90845C76.8985 3.77713 76.951 3.67536 77.0282 3.60149C77.102 3.52434 77.2055 3.47181 77.3319 3.43734C77.4583 3.40287 77.6191 3.38645 77.8128 3.38645H80.0978C80.2997 3.38645 80.4639 3.40287 80.5886 3.43734C80.7167 3.47017 80.8201 3.52434 80.8956 3.60149C80.9695 3.677 81.0236 3.77713 81.0548 3.90845C81.0844 4.03978 81.0991 4.19572 81.0991 4.38285V5.44163Z" fill="white"/>
</g>
<mask id="mask9_9_1131" style="mask-type:luminance" maskUnits="userSpaceOnUse" x="0" y="0" width="120" height="50">
<path d="M120 0H0V49.9416H120V0Z" fill="white"/>
</mask>
<g mask="url(#mask9_9_1131)">
<path d="M105.921 1.26396H106.81C106.943 1.26396 107.009 1.19502 107.009 1.05549V0.196977C107.009 0.0640139 106.942 -0.00164795 106.81 -0.00164795H105.921C105.781 -0.00164795 105.712 0.0640139 105.712 0.196977V1.05549C105.712 1.19502 105.781 1.26396 105.921 1.26396Z" fill="white"/>
</g>
<mask id="mask10_9_1131" style="mask-type:luminance" maskUnits="userSpaceOnUse" x="0" y="0" width="120" height="50">
<path d="M120 0H0V49.9416H120V0Z" fill="white"/>
</mask>
<g mask="url(#mask10_9_1131)">
<path d="M104.023 1.26396H104.914C105.046 1.26396 105.113 1.19502 105.113 1.05549V0.196977C105.113 0.0640139 105.046 -0.00164795 104.914 -0.00164795H104.023C103.885 -0.00164795 103.813 0.0640139 103.813 0.196977V1.05549C103.813 1.19502 103.885 1.26396 104.023 1.26396Z" fill="white"/>
</g>
<mask id="mask11_9_1131" style="mask-type:luminance" maskUnits="userSpaceOnUse" x="0" y="0" width="120" height="50">
<path d="M120 0H0V49.9416H120V0Z" fill="white"/>
</mask>
<g mask="url(#mask11_9_1131)">
<path d="M86.1748 9.05463H85.2851C85.1456 9.05463 85.0767 9.12029 85.0767 9.25161V10.1118C85.0767 10.2513 85.1456 10.3202 85.2851 10.3202H86.1748C86.3094 10.3202 86.3751 10.2513 86.3751 10.1118V9.25161C86.3751 9.12029 86.3094 9.05463 86.1748 9.05463Z" fill="white"/>
</g>
<mask id="mask12_9_1131" style="mask-type:luminance" maskUnits="userSpaceOnUse" x="0" y="0" width="120" height="50">
<path d="M120 0H0V49.9416H120V0Z" fill="white"/>
</mask>
<g mask="url(#mask12_9_1131)">
<path d="M84.2771 9.05463H83.3874C83.2479 9.05463 83.179 9.12029 83.179 9.25161V10.1118C83.179 10.2513 83.2495 10.3202 83.3874 10.3202H84.2771C84.4101 10.3202 84.4774 10.2513 84.4774 10.1118V9.25161C84.4774 9.12029 84.4085 9.05463 84.2771 9.05463Z" fill="white"/>
</g>
<mask id="mask13_9_1131" style="mask-type:luminance" maskUnits="userSpaceOnUse" x="0" y="0" width="120" height="50">
<path d="M120 0H0V49.9416H120V0Z" fill="white"/>
</mask>
<g mask="url(#mask13_9_1131)">
<path d="M54.1784 3.97575H55.0681C55.2027 3.97575 55.2667 3.90681 55.2667 3.76728V2.90713C55.2667 2.7758 55.2027 2.71014 55.0681 2.71014H54.1784C54.0388 2.71014 53.9683 2.77745 53.9683 2.90713V3.76728C53.9683 3.90845 54.0388 3.97575 54.1784 3.97575Z" fill="white"/>
</g>
<mask id="mask14_9_1131" style="mask-type:luminance" maskUnits="userSpaceOnUse" x="0" y="0" width="120" height="50">
<path d="M120 0H0V49.9416H120V0Z" fill="white"/>
</mask>
<g mask="url(#mask14_9_1131)">
<path d="M52.2791 3.97575H53.1704C53.3034 3.97575 53.3691 3.90681 53.3691 3.76728V2.90713C53.3691 2.7758 53.3018 2.71014 53.1704 2.71014H52.2791C52.1429 2.71014 52.0723 2.77745 52.0723 2.90713V3.76728C52.0723 3.90845 52.1412 3.97575 52.2791 3.97575Z" fill="white"/>
</g>
<mask id="mask15_9_1131" style="mask-type:luminance" maskUnits="userSpaceOnUse" x="0" y="0" width="120" height="50">
<path d="M120 0H0V49.9416H120V0Z" fill="white"/>
</mask>
<g mask="url(#mask15_9_1131)">
<path d="M58.9141 2.33752H58.0178C57.8832 2.33752 57.8159 2.40319 57.8159 2.53615V5.47283C57.8159 5.66489 57.8012 5.82575 57.7716 5.95215C57.7421 6.07855 57.6895 6.17868 57.614 6.25583C57.5451 6.33134 57.4433 6.38551 57.3169 6.42163C57.1889 6.45117 57.0247 6.47087 56.8261 6.47087H50.8986C50.6983 6.47087 50.5358 6.45281 50.4077 6.42163C50.2797 6.38551 50.1812 6.33298 50.1074 6.25583C50.0335 6.17868 49.9842 6.07855 49.9547 5.95215C49.9235 5.82575 49.9087 5.66653 49.9087 5.47283V2.53615C49.9087 2.40154 49.8398 2.33752 49.7085 2.33752H48.8106C48.6759 2.33752 48.6086 2.40319 48.6086 2.53615V5.79785C48.6086 6.12451 48.6448 6.40193 48.7203 6.63502C48.7925 6.86648 48.9123 7.05525 49.0765 7.20299C49.2423 7.35237 49.4655 7.46071 49.7397 7.52637C50.0154 7.59203 50.3585 7.62322 50.7705 7.62322H56.9541C57.3661 7.62322 57.7076 7.59203 57.985 7.52637C58.2608 7.46071 58.4807 7.35237 58.6482 7.20299C58.8156 7.05525 58.9354 6.86648 59.0077 6.63502C59.0799 6.40193 59.1193 6.12451 59.1193 5.79785V2.53615C59.1176 2.40319 59.0471 2.33752 58.9141 2.33752Z" fill="white"/>
</g>
<mask id="mask16_9_1131" style="mask-type:luminance" maskUnits="userSpaceOnUse" x="0" y="0" width="120" height="50">
<path d="M120 0H0V49.9416H120V0Z" fill="white"/>
</mask>
<g mask="url(#mask16_9_1131)">
<path d="M119.724 0.845398H118.83C118.695 0.845398 118.628 0.911057 118.628 1.04402V7.42461C118.628 7.55757 118.695 7.62323 118.83 7.62323H119.724C119.859 7.62323 119.923 7.55757 119.923 7.42461V1.04402C119.924 0.912699 119.859 0.845398 119.724 0.845398Z" fill="white"/>
</g>
<mask id="mask17_9_1131" style="mask-type:luminance" maskUnits="userSpaceOnUse" x="0" y="0" width="120" height="50">
<path d="M120 0H0V49.9416H120V0Z" fill="white"/>
</mask>
<g mask="url(#mask17_9_1131)">
<path d="M5.67637 41.9966C6.29194 41.9966 6.81887 42.059 7.26044 42.1838C7.70201 42.3102 8.06314 42.5006 8.3422 42.7616C8.62454 43.0226 8.82973 43.3558 8.96434 43.758C9.0973 44.1667 9.1646 44.6444 9.1646 45.196V46.739C9.1646 47.2922 9.0973 47.7699 8.96434 48.1753C8.83137 48.5808 8.62454 48.914 8.3422 49.1766C8.0615 49.436 7.70037 49.6297 7.26044 49.7528C6.81887 49.8792 6.29194 49.9399 5.67637 49.9399H0.341436C0.113265 49.9399 0 49.8283 0 49.6002V42.3331C0 42.1066 0.114907 41.995 0.341436 41.995H5.67637V41.9966ZM1.74329 48.218C1.74329 48.3148 1.79254 48.3641 1.89103 48.3641H5.63041C5.96528 48.3641 6.24598 48.3345 6.47579 48.2738C6.70396 48.2114 6.88781 48.1129 7.02898 47.9767C7.17016 47.8421 7.26865 47.6599 7.32938 47.4333C7.38848 47.2052 7.41967 46.9245 7.41967 46.5929V45.3453C7.41967 45.0105 7.38848 44.7314 7.32938 44.5049C7.26701 44.2783 7.16851 44.0961 7.02898 43.9615C6.88781 43.8253 6.70396 43.7268 6.47579 43.6644C6.24598 43.6053 5.96528 43.5741 5.63041 43.5741H1.89103C1.79254 43.5741 1.74329 43.6267 1.74329 43.7334V48.218Z" fill="white"/>
</g>
<mask id="mask18_9_1131" style="mask-type:luminance" maskUnits="userSpaceOnUse" x="0" y="0" width="120" height="50">
<path d="M120 0H0V49.9416H120V0Z" fill="white"/>
</mask>
<g mask="url(#mask18_9_1131)">
<path d="M12.515 41.9966C12.6824 41.9966 12.7661 42.082 12.7661 42.2462V46.7751C12.7661 47.0788 12.7891 47.3283 12.84 47.5302C12.8909 47.7272 12.9697 47.8881 13.0846 48.0062C13.1978 48.1228 13.3521 48.2082 13.5475 48.2558C13.7412 48.305 13.9858 48.3296 14.2812 48.3296H17.4379C17.735 48.3296 17.9779 48.305 18.1733 48.2558C18.3653 48.2082 18.5213 48.1228 18.6345 48.0062C18.7494 47.8881 18.8299 47.7288 18.8742 47.5302C18.9202 47.3283 18.9431 47.0788 18.9431 46.7751V42.2462C18.9431 42.082 19.0252 41.9966 19.1943 41.9966H20.4353C20.6027 41.9966 20.6864 42.082 20.6864 42.2462V46.9442C20.6864 47.4908 20.6306 47.9537 20.5157 48.3346C20.4008 48.717 20.2186 49.0273 19.9642 49.2653C19.7081 49.5033 19.3765 49.6757 18.971 49.7824C18.5656 49.8891 18.0715 49.94 17.4937 49.94H14.2123C13.6328 49.94 13.1437 49.8891 12.7398 49.7824C12.3377 49.6757 12.0094 49.5033 11.7549 49.2653C11.5005 49.0273 11.3134 48.717 11.1968 48.3346C11.0786 47.9537 11.0195 47.4908 11.0195 46.9442V42.2462C11.0195 42.082 11.1065 41.9966 11.2822 41.9966H12.515Z" fill="white"/>
</g>
<mask id="mask19_9_1131" style="mask-type:luminance" maskUnits="userSpaceOnUse" x="0" y="0" width="120" height="50">
<path d="M120 0H0V49.9416H120V0Z" fill="white"/>
</mask>
<g mask="url(#mask19_9_1131)">
<path d="M29.5425 41.9966C30.3255 41.9966 30.8836 42.1509 31.2119 42.4628C31.5435 42.7731 31.7093 43.2409 31.7093 43.8696V44.4146C31.7093 45.0499 31.4664 45.5308 30.9805 45.8558C31.5041 46.1579 31.7668 46.6454 31.7668 47.3201V47.9767C31.7668 48.2804 31.7323 48.5529 31.6634 48.7925C31.5944 49.0355 31.4828 49.2423 31.3285 49.413C31.1726 49.5821 30.9641 49.7134 30.7064 49.8053C30.447 49.8956 30.1269 49.9399 29.7494 49.9399H22.9781C22.7499 49.9399 22.635 49.8267 22.635 49.6002V42.3348C22.635 42.1083 22.7499 41.995 22.9781 41.995H29.5425V41.9966ZM24.3816 45.2994H29.0534C29.4342 45.2994 29.6919 45.2436 29.8298 45.1303C29.966 45.017 30.0333 44.8496 30.0333 44.6296V44.2455C30.0333 44.0091 29.9677 43.8401 29.8347 43.7301C29.7034 43.6185 29.4851 43.5626 29.1912 43.5626H24.5293C24.4308 43.5626 24.3816 43.6152 24.3816 43.7137V45.2994ZM24.3816 46.5371V48.2278C24.3816 48.3263 24.4308 48.3756 24.5293 48.3756H29.2011C29.5064 48.3756 29.7247 48.3214 29.8528 48.2114C29.9808 48.0998 30.0448 47.9258 30.0448 47.6829V47.2528C30.0448 47.0164 29.9742 46.8408 29.8347 46.7193C29.6935 46.5995 29.4342 46.5387 29.0534 46.5387H24.3816V46.5371Z" fill="white"/>
</g>
<mask id="mask20_9_1131" style="mask-type:luminance" maskUnits="userSpaceOnUse" x="0" y="0" width="120" height="50">
<path d="M120 0H0V49.9416H120V0Z" fill="white"/>
</mask>
<g mask="url(#mask20_9_1131)">
<path d="M38.2524 41.9966C38.5413 41.9966 38.7843 42.0557 38.9796 42.1723C39.1782 42.2888 39.3736 42.517 39.564 42.8617L43.3362 49.6806C43.3723 49.7577 43.3805 49.8201 43.3625 49.8694C43.3444 49.917 43.2902 49.9416 43.1967 49.9416H41.7505C41.6192 49.9416 41.5338 49.894 41.4862 49.7955L40.6769 48.3313H35.319L34.5327 49.7955C34.4818 49.894 34.3932 49.9416 34.2685 49.9416H32.7894C32.6909 49.9416 32.6319 49.917 32.6105 49.8694C32.5925 49.8201 32.6023 49.7577 32.6417 49.6806L36.3778 42.8617C36.5682 42.5186 36.7554 42.2888 36.9359 42.1723C37.1198 42.0557 37.3315 41.9966 37.5745 41.9966H38.2524ZM36.0396 47.0131H39.9612L38.149 43.6874C38.1178 43.6332 38.0768 43.6086 38.0226 43.6086H37.9553C37.9011 43.6086 37.8601 43.6332 37.8305 43.6874L36.0396 47.0131Z" fill="white"/>
</g>
<mask id="mask21_9_1131" style="mask-type:luminance" maskUnits="userSpaceOnUse" x="0" y="0" width="120" height="50">
<path d="M120 0H0V49.9416H120V0Z" fill="white"/>
</mask>
<g mask="url(#mask21_9_1131)">
<path d="M46.2531 41.9966C46.4205 41.9966 46.5042 42.082 46.5042 42.2462V49.6937C46.5042 49.8595 46.4205 49.94 46.2531 49.94H45.0219C44.8463 49.94 44.7593 49.8579 44.7593 49.6937V42.2462C44.7593 42.082 44.8463 41.9966 45.0219 41.9966H46.2531Z" fill="white"/>
</g>
<mask id="mask22_9_1131" style="mask-type:luminance" maskUnits="userSpaceOnUse" x="0" y="0" width="120" height="50">
<path d="M120 0H0V49.9416H120V0Z" fill="white"/>
</mask>
<g mask="url(#mask22_9_1131)">
<path d="M60.6722 41.9966C60.8397 41.9966 60.9217 42.082 60.9217 42.2462V43.3246C60.9217 43.4921 60.8397 43.5758 60.6722 43.5758H54.963C54.7414 43.5758 54.5871 43.6332 54.4919 43.7449C54.4033 43.8581 54.3573 44.0124 54.3573 44.2094V44.5985C54.3573 45.0203 54.5559 45.2337 54.9499 45.2337H59.2228C59.8859 45.2337 60.3833 45.4012 60.7149 45.7393C61.0531 46.0725 61.2205 46.5568 61.2205 47.1822V48.0916C61.2205 48.6432 61.058 49.0913 60.7313 49.4327C60.403 49.7742 59.8942 49.9416 59.1998 49.9416H52.8865C52.7109 49.9416 52.6255 49.8595 52.6255 49.6954V48.6136C52.6255 48.4478 52.7109 48.3657 52.8865 48.3657H58.8731C59.0914 48.3657 59.2474 48.3083 59.3393 48.195C59.4296 48.0818 59.4756 47.9258 59.4756 47.7288V47.2643C59.4756 46.8408 59.2786 46.6274 58.883 46.6274H54.6085C53.9486 46.6274 53.4495 46.4599 53.1163 46.1234C52.7798 45.7886 52.614 45.3043 52.614 44.6772V43.8483C52.614 43.2967 52.7782 42.8502 53.1032 42.5088C53.4299 42.1674 53.9387 41.9966 54.6314 41.9966H60.6722Z" fill="white"/>
</g>
<mask id="mask23_9_1131" style="mask-type:luminance" maskUnits="userSpaceOnUse" x="0" y="0" width="120" height="50">
<path d="M120 0H0V49.9416H120V0Z" fill="white"/>
</mask>
<g mask="url(#mask23_9_1131)">
<path d="M71.6473 41.9966C71.8213 41.9966 71.9116 42.082 71.9116 42.2462V43.3575C71.9116 43.5315 71.823 43.6185 71.6473 43.6185H68.0688V49.6937C68.0688 49.8595 67.9851 49.94 67.8177 49.94H66.575C66.4092 49.94 66.3255 49.8579 66.3255 49.6937V43.6185H62.747C62.5714 43.6185 62.4844 43.5315 62.4844 43.3575V42.2462C62.4844 42.082 62.5714 41.9966 62.747 41.9966H71.6473Z" fill="white"/>
</g>
<mask id="mask24_9_1131" style="mask-type:luminance" maskUnits="userSpaceOnUse" x="0" y="0" width="120" height="50">
<path d="M120 0H0V49.9416H120V0Z" fill="white"/>
</mask>
<g mask="url(#mask24_9_1131)">
<path d="M74.965 41.9966C75.1324 41.9966 75.2161 42.082 75.2161 42.2462V46.7751C75.2161 47.0788 75.2391 47.3283 75.2884 47.5302C75.3392 47.7272 75.4213 47.8881 75.5346 48.0062C75.6478 48.1228 75.8022 48.2082 75.9975 48.2558C76.1895 48.305 76.4341 48.3296 76.7312 48.3296H79.8895C80.1867 48.3296 80.4296 48.305 80.6233 48.2558C80.8186 48.2082 80.9729 48.1228 81.0862 48.0062C81.1995 47.8881 81.2799 47.7288 81.3259 47.5302C81.3702 47.3283 81.3948 47.0788 81.3948 46.7751V42.2462C81.3948 42.082 81.4802 41.9966 81.646 41.9966H82.8869C83.0577 41.9966 83.1397 42.082 83.1397 42.2462V46.9442C83.1397 47.4908 83.0839 47.9537 82.9674 48.3346C82.8558 48.717 82.6703 49.0273 82.4158 49.2653C82.163 49.5033 81.8315 49.6757 81.4244 49.7824C81.0173 49.8891 80.5264 49.94 79.9503 49.94H76.6639C76.0845 49.94 75.597 49.8891 75.1931 49.7824C74.7893 49.6757 74.461 49.5033 74.2082 49.2653C73.9522 49.0273 73.7667 48.717 73.6501 48.3346C73.5319 47.9537 73.4712 47.4908 73.4712 46.9442V42.2462C73.4712 42.082 73.5598 41.9966 73.7355 41.9966H74.965Z" fill="white"/>
</g>
<mask id="mask25_9_1131" style="mask-type:luminance" maskUnits="userSpaceOnUse" x="0" y="0" width="120" height="50">
<path d="M120 0H0V49.9416H120V0Z" fill="white"/>
</mask>
<g mask="url(#mask25_9_1131)">
<path d="M90.7612 41.9966C91.3784 41.9966 91.9053 42.059 92.3469 42.1838C92.7884 42.3102 93.1463 42.5006 93.4303 42.7616C93.711 43.0226 93.9178 43.3558 94.0508 43.758C94.1837 44.1667 94.251 44.6444 94.251 45.196V46.739C94.251 47.2922 94.1837 47.7699 94.0508 48.1753C93.9178 48.5808 93.711 48.914 93.4303 49.1766C93.1463 49.436 92.7884 49.6297 92.3469 49.7528C91.9053 49.8792 91.3767 49.9399 90.7612 49.9399H85.4279C85.203 49.9399 85.0864 49.8283 85.0864 49.6002V42.3331C85.0864 42.1066 85.203 41.995 85.4279 41.995H90.7612V41.9966ZM86.8297 48.218C86.8297 48.3148 86.8823 48.3641 86.9791 48.3641H90.7185C91.055 48.3641 91.3324 48.3345 91.5606 48.2738C91.7888 48.2114 91.9726 48.1129 92.1138 47.9767C92.2533 47.8421 92.3534 47.6599 92.4158 47.4333C92.4766 47.2052 92.5061 46.9245 92.5061 46.5929V45.3453C92.5061 45.0105 92.4766 44.7314 92.4158 44.5049C92.3534 44.2783 92.2533 44.0961 92.1138 43.9615C91.9726 43.8253 91.7888 43.7268 91.5606 43.6644C91.3324 43.6053 91.0533 43.5741 90.7185 43.5741H86.9791C86.8806 43.5741 86.8297 43.6267 86.8297 43.7334V48.218Z" fill="white"/>
</g>
<mask id="mask26_9_1131" style="mask-type:luminance" maskUnits="userSpaceOnUse" x="0" y="0" width="120" height="50">
<path d="M120 0H0V49.9416H120V0Z" fill="white"/>
</mask>
<g mask="url(#mask26_9_1131)">
<path d="M97.6262 41.9966C97.7936 41.9966 97.8773 42.082 97.8773 42.2462V49.6937C97.8773 49.8595 97.7936 49.94 97.6262 49.94H96.395C96.221 49.94 96.134 49.8579 96.134 49.6937V42.2462C96.134 42.082 96.2227 41.9966 96.395 41.9966H97.6262Z" fill="white"/>
</g>
<mask id="mask27_9_1131" style="mask-type:luminance" maskUnits="userSpaceOnUse" x="0" y="0" width="120" height="50">
<path d="M120 0H0V49.9416H120V0Z" fill="white"/>
</mask>
<g mask="url(#mask27_9_1131)">
<path d="M106.47 41.9966C107.05 41.9966 107.539 42.0525 107.948 42.1608C108.353 42.2708 108.685 42.4448 108.939 42.6828C109.194 42.9225 109.378 43.2294 109.491 43.607C109.604 43.9845 109.662 44.4474 109.662 44.9924V46.9425C109.662 47.4908 109.604 47.9521 109.491 48.3329C109.378 48.717 109.194 49.0256 108.939 49.2637C108.685 49.5017 108.353 49.674 107.948 49.7807C107.541 49.8858 107.05 49.9383 106.47 49.9383H102.948C102.372 49.9383 101.879 49.8874 101.477 49.7807C101.075 49.674 100.748 49.5017 100.492 49.2637C100.236 49.0256 100.05 48.717 99.9339 48.3329C99.8141 47.9521 99.7583 47.4908 99.7583 46.9425V44.9924C99.7583 44.4474 99.8141 43.9845 99.9339 43.607C100.05 43.2294 100.238 42.9225 100.492 42.6828C100.748 42.4448 101.075 42.2708 101.477 42.1608C101.881 42.0525 102.372 41.9966 102.948 41.9966H106.47ZM101.5 46.8211C101.5 47.1165 101.523 47.3628 101.574 47.5647C101.623 47.7633 101.704 47.9242 101.82 48.0424C101.932 48.1589 102.088 48.241 102.28 48.2902C102.473 48.3411 102.718 48.3641 103.013 48.3641H106.402C106.697 48.3641 106.942 48.3411 107.135 48.2902C107.329 48.241 107.482 48.1589 107.597 48.0424C107.711 47.9242 107.792 47.7633 107.841 47.5647C107.892 47.3628 107.917 47.1165 107.917 46.8211V45.1188C107.917 44.8217 107.892 44.5738 107.841 44.3752C107.792 44.1749 107.711 44.0157 107.597 43.8975C107.482 43.781 107.329 43.6989 107.135 43.648C106.942 43.5988 106.695 43.5758 106.402 43.5758H103.013C102.718 43.5758 102.473 43.6004 102.28 43.648C102.086 43.6989 101.932 43.781 101.82 43.8975C101.704 44.0157 101.623 44.1749 101.574 44.3752C101.521 44.5738 101.5 44.8217 101.5 45.1188V46.8211Z" fill="white"/>
</g>
<mask id="mask28_9_1131" style="mask-type:luminance" maskUnits="userSpaceOnUse" x="0" y="0" width="120" height="50">
<path d="M120 0H0V49.9416H120V0Z" fill="white"/>
</mask>
<g mask="url(#mask28_9_1131)">
<path d="M119.453 41.9966C119.619 41.9966 119.705 42.082 119.705 42.2462V43.3246C119.705 43.4921 119.619 43.5758 119.453 43.5758H113.743C113.521 43.5758 113.367 43.6332 113.276 43.7449C113.185 43.8581 113.14 44.0124 113.14 44.2094V44.5985C113.14 45.0203 113.336 45.2337 113.729 45.2337H118.006C118.669 45.2337 119.165 45.4012 119.499 45.7393C119.833 46.0725 120 46.5568 120 47.1822V48.0916C120 48.6432 119.836 49.0913 119.511 49.4327C119.184 49.7742 118.675 49.9416 117.983 49.9416H111.669C111.495 49.9416 111.408 49.8595 111.408 49.6954V48.6136C111.408 48.4478 111.495 48.3657 111.669 48.3657H117.654C117.876 48.3657 118.03 48.3083 118.122 48.195C118.214 48.0818 118.258 47.9258 118.258 47.7288V47.2643C118.258 46.8408 118.06 46.6274 117.666 46.6274H113.39C112.728 46.6274 112.231 46.4599 111.896 46.1234C111.561 45.7886 111.395 45.3043 111.395 44.6772V43.8483C111.395 43.2967 111.559 42.8502 111.884 42.5088C112.211 42.1674 112.72 41.9966 113.411 41.9966H119.453Z" fill="white"/>
</g>
<mask id="mask29_9_1131" style="mask-type:luminance" maskUnits="userSpaceOnUse" x="0" y="0" width="120" height="50">
<path d="M120 0H0V49.9416H120V0Z" fill="white"/>
</mask>
<g mask="url(#mask29_9_1131)">
<path d="M18.1684 0.669739H0.121582V10.4269H14.4143C17.3313 10.4269 19.2486 10.7996 19.2486 15.4483C19.2486 20.0971 17.2492 20.5124 14.4143 20.5124H0.121582V30.2269H18.1684C22.3822 30.2269 28.3426 28.4016 28.3426 15.45C28.3426 2.49839 22.3822 0.669739 18.1684 0.669739Z" fill="white"/>
</g>
<mask id="mask30_9_1131" style="mask-type:luminance" maskUnits="userSpaceOnUse" x="0" y="0" width="120" height="50">
<path d="M120 0H0V49.9416H120V0Z" fill="white"/>
</mask>
<g mask="url(#mask30_9_1131)">
<path d="M37.3954 16.2396C33.5164 16.2396 30.3762 19.3568 30.3762 23.2341C30.3762 27.0982 33.5164 30.2253 37.3954 30.2253C41.2661 30.2253 44.426 27.0966 44.426 23.2341C44.426 19.3568 41.2661 16.2396 37.3954 16.2396Z" fill="#00B8B1"/>
</g>
</svg>
