<svg width="121" height="97" viewBox="0 0 121 97" fill="none" xmlns="http://www.w3.org/2000/svg">
<path d="M6.60531 88.739C7.22124 88.739 7.7492 88.8019 8.18915 88.9276C8.6291 89.0533 8.99361 89.245 9.27015 89.5089C9.55298 89.7698 9.76038 90.106 9.89236 90.5114C10.0243 90.9199 10.0935 91.4007 10.0935 91.9538V93.5031C10.0935 94.0593 10.0275 94.5369 9.89236 94.9455C9.76038 95.3509 9.55298 95.6871 9.27015 95.9511C8.99047 96.2119 8.6291 96.4067 8.18915 96.5293C7.7492 96.655 7.22124 96.7178 6.60531 96.7178H1.27247C1.04621 96.7178 0.929932 96.6047 0.929932 96.3785V89.0815C0.929932 88.8553 1.04307 88.7422 1.27247 88.7422H6.60531V88.739ZM2.67088 94.9895C2.67088 95.0869 2.72117 95.1372 2.81858 95.1372H6.55816C6.89441 95.1372 7.17412 95.1057 7.40352 95.046C7.63292 94.9832 7.81519 94.8858 7.9566 94.7475C8.09802 94.6124 8.19542 94.427 8.25827 94.2007C8.31798 93.9713 8.34942 93.6916 8.34942 93.3585V92.1046C8.34942 91.7684 8.31798 91.4887 8.25827 91.2593C8.19542 91.0299 8.09802 90.8508 7.9566 90.7125C7.81519 90.5742 7.63292 90.4768 7.40352 90.414C7.17412 90.3543 6.89441 90.3228 6.55816 90.3228H2.81858C2.72117 90.3228 2.67088 90.3731 2.67088 90.4831V94.9895Z" fill="white"/>
<path d="M13.4434 88.739C13.6099 88.739 13.6948 88.8239 13.6948 88.9904V93.5408C13.6948 93.8456 13.7168 94.097 13.7671 94.2981C13.8173 94.4961 13.8959 94.6564 14.0122 94.7758C14.1253 94.8952 14.2793 94.9769 14.4741 95.0272C14.6658 95.0775 14.9109 95.1026 15.2095 95.1026H18.3677C18.6662 95.1026 18.9082 95.0775 19.103 95.0272C19.2947 94.98 19.4519 94.8952 19.565 94.7758C19.6781 94.6564 19.7598 94.4961 19.8038 94.2981C19.8478 94.097 19.8729 93.8456 19.8729 93.5408V88.9904C19.8729 88.8239 19.9547 88.739 20.1244 88.739H21.3656C21.5322 88.739 21.6171 88.8239 21.6171 88.9904V93.7105C21.6171 94.2604 21.5605 94.7255 21.4473 95.1057C21.3342 95.4923 21.1488 95.8002 20.8974 96.0391C20.6429 96.2779 20.3097 96.4507 19.9044 96.5576C19.499 96.6644 19.0056 96.7147 18.4274 96.7147H15.1466C14.5684 96.7147 14.0782 96.6644 13.6728 96.5576C13.2705 96.4507 12.9437 96.2779 12.686 96.0391C12.4315 95.8002 12.2461 95.4891 12.1298 95.1057C12.0104 94.7224 11.9507 94.2604 11.9507 93.7105V88.9904C11.9507 88.8239 12.0387 88.739 12.2146 88.739H13.4434Z" fill="white"/>
<path d="M30.4695 88.739C31.252 88.739 31.8114 88.893 32.1413 89.2072C32.4744 89.5184 32.6378 89.9897 32.6378 90.6182V91.165C32.6378 91.803 32.3959 92.2869 31.9088 92.6137C32.4336 92.9154 32.6944 93.4056 32.6944 94.0844V94.7444C32.6944 95.0492 32.6598 95.3226 32.5938 95.5645C32.5247 95.8097 32.4147 96.0171 32.2576 96.1868C32.1005 96.3565 31.8931 96.4885 31.6354 96.5796C31.3746 96.6707 31.0572 96.7147 30.6769 96.7147H23.9048C23.6754 96.7147 23.5623 96.6016 23.5623 96.3753V89.0784C23.5623 88.8521 23.6754 88.739 23.9048 88.739H30.4695ZM25.3095 92.0575H29.9824C30.3627 92.0575 30.6203 92.0009 30.7586 91.8878C30.8969 91.7747 30.9629 91.605 30.9629 91.385V90.9985C30.9629 90.7628 30.8969 90.5899 30.7649 90.48C30.6329 90.37 30.4161 90.3134 30.1207 90.3134H25.4572C25.3598 90.3134 25.3095 90.3637 25.3095 90.4642V92.0575ZM25.3095 93.2988V94.9957C25.3095 95.0963 25.3598 95.1435 25.4572 95.1435H30.1301C30.4349 95.1435 30.6518 95.09 30.7806 94.98C30.9095 94.8701 30.9723 94.6909 30.9723 94.449V94.0184C30.9723 93.7827 30.9 93.6036 30.7618 93.4811C30.6204 93.3616 30.3595 93.2988 29.9793 93.2988H25.3095Z" fill="white"/>
<path d="M39.1807 88.739C39.4698 88.739 39.7117 88.7987 39.9097 88.915C40.1077 89.0313 40.3025 89.2607 40.4942 89.6064L44.2684 96.4539C44.3029 96.5293 44.3124 96.5953 44.2935 96.6424C44.2747 96.6896 44.2212 96.7147 44.127 96.7147H42.6814C42.5494 96.7147 42.4646 96.6676 42.4174 96.567L41.6067 95.0963H36.2487L35.463 96.567C35.4128 96.6644 35.3248 96.7147 35.1991 96.7147H33.719C33.6216 96.7147 33.5618 96.6896 33.5398 96.6424C33.521 96.5921 33.5304 96.5293 33.5713 96.4539L37.3077 89.6064C37.4962 89.2607 37.6848 89.0313 37.8671 88.915C38.0493 88.7987 38.263 88.739 38.505 88.739H39.1807ZM36.9683 93.7796H40.8902L39.0769 90.4391C39.0455 90.3857 39.0047 90.3605 38.9513 90.3605H38.8852C38.8318 90.3605 38.791 90.3857 38.7595 90.4391L36.9683 93.7796Z" fill="white"/>
<path d="M47.1814 88.739C47.3479 88.739 47.4328 88.8239 47.4328 88.9904V96.4696C47.4328 96.6361 47.3479 96.7178 47.1814 96.7178H45.9495C45.7735 96.7178 45.6855 96.6361 45.6855 96.4696V88.9904C45.6855 88.8239 45.7735 88.739 45.9495 88.739H47.1814Z" fill="white"/>
<path d="M61.5994 88.739C61.766 88.739 61.8477 88.8239 61.8477 88.9904V90.0746C61.8477 90.2411 61.766 90.326 61.5994 90.326H55.8894C55.6695 90.326 55.5155 90.3825 55.4181 90.4957C55.3301 90.6088 55.283 90.7659 55.283 90.9608V91.3504C55.283 91.7747 55.4809 91.9884 55.8738 91.9884H60.1476C60.8106 91.9884 61.3071 92.1581 61.6403 92.4974C61.9765 92.8337 62.143 93.3176 62.143 93.9493V94.8606C62.143 95.4137 61.9797 95.8631 61.656 96.2056C61.326 96.5482 60.8169 96.7178 60.1256 96.7178H53.8122C53.6363 96.7178 53.5514 96.6361 53.5514 96.4696V95.3854C53.5514 95.2189 53.6363 95.1372 53.8122 95.1372H59.7987C60.0187 95.1372 60.1727 95.0775 60.2638 94.9675C60.355 94.8543 60.4021 94.6972 60.4021 94.4992V94.0341C60.4021 93.6068 60.2041 93.3962 59.8113 93.3962H55.5375C54.8776 93.3962 54.3779 93.2265 54.0448 92.8903C53.7085 92.554 53.542 92.0669 53.542 91.4384V90.6057C53.542 90.0526 53.7054 89.6032 54.0322 89.2607C54.3591 88.9181 54.8681 88.7484 55.5595 88.7484H61.5994V88.739Z" fill="white"/>
<path d="M72.5761 88.739C72.7521 88.739 72.8401 88.8239 72.8401 88.9904V90.106C72.8401 90.282 72.7521 90.3668 72.5761 90.3668H68.9968V96.4664C68.9968 96.633 68.9151 96.7147 68.7454 96.7147H67.501C67.3344 96.7147 67.2527 96.633 67.2527 96.4664V90.3668H63.6734C63.4974 90.3668 63.4094 90.2788 63.4094 90.106V88.9904C63.4094 88.8239 63.4974 88.739 63.6734 88.739H72.5761Z" fill="white"/>
<path d="M75.8945 88.739C76.0611 88.739 76.1459 88.8239 76.1459 88.9904V93.5408C76.1459 93.8456 76.1711 94.097 76.2182 94.2981C76.2685 94.4961 76.3533 94.6564 76.4665 94.7758C76.5796 94.8952 76.7336 94.9769 76.9284 95.0272C77.1201 95.0775 77.3652 95.1026 77.6638 95.1026H80.822C81.1174 95.1026 81.3625 95.0775 81.5542 95.0272C81.749 94.98 81.903 94.8952 82.0161 94.7758C82.1293 94.6564 82.211 94.4961 82.255 94.2981C82.299 94.097 82.3241 93.8456 82.3241 93.5408V88.9904C82.3241 88.8239 82.409 88.739 82.5755 88.739H83.8168C83.9865 88.739 84.0682 88.8239 84.0682 88.9904V93.7105C84.0682 94.2604 84.0116 94.7255 83.8953 95.1057C83.7854 95.4923 83.5968 95.8002 83.3423 96.0391C83.0878 96.2779 82.7578 96.4507 82.3524 96.5576C81.9439 96.6644 81.4536 96.7147 80.8785 96.7147H77.5946C77.0164 96.7147 76.5262 96.6644 76.1239 96.5576C75.7217 96.4507 75.3917 96.2779 75.1372 96.0391C74.8795 95.8002 74.6972 95.4891 74.5778 95.1057C74.4584 94.7224 74.3987 94.2604 74.3987 93.7105V88.9904C74.3987 88.8239 74.4867 88.739 74.6626 88.739H75.8945Z" fill="white"/>
<path d="M91.6888 88.739C92.3047 88.739 92.8327 88.8019 93.2758 88.9276C93.7157 89.0533 94.0771 89.245 94.3599 89.5089C94.6396 89.7698 94.847 90.106 94.979 90.5114C95.111 90.9199 95.1801 91.4007 95.1801 91.9538V93.5031C95.1801 94.0593 95.1141 94.5369 94.979 94.9455C94.847 95.3509 94.6396 95.6871 94.3599 95.9511C94.0771 96.2119 93.7157 96.4067 93.2758 96.5293C92.8327 96.655 92.3047 96.7178 91.6888 96.7178H86.356C86.1297 96.7178 86.0134 96.6047 86.0134 96.3785V89.0815C86.0134 88.8553 86.1297 88.7422 86.356 88.7422H91.6888V88.739ZM87.7575 94.9895C87.7575 95.0869 87.8078 95.1372 87.9083 95.1372H91.6479C91.9842 95.1372 92.2639 95.1057 92.4901 95.046C92.7195 94.9832 92.9018 94.8858 93.0432 94.7475C93.1846 94.6124 93.2852 94.427 93.3449 94.2007C93.4046 93.9713 93.436 93.6916 93.436 93.3585V92.1046C93.436 91.7684 93.4077 91.4887 93.3449 91.2593C93.282 91.0299 93.1815 90.8508 93.0432 90.7125C92.9018 90.5742 92.7195 90.4768 92.4901 90.414C92.2639 90.3543 91.9842 90.3228 91.6479 90.3228H87.9083C87.8109 90.3228 87.7575 90.3731 87.7575 90.4831V94.9895Z" fill="white"/>
<path d="M98.552 88.739C98.7186 88.739 98.8034 88.8239 98.8034 88.9904V96.4696C98.8034 96.6361 98.7186 96.7178 98.552 96.7178H97.3202C97.1473 96.7178 97.0593 96.6361 97.0593 96.4696V88.9904C97.0593 88.8239 97.1473 88.739 97.3202 88.739H98.552Z" fill="white"/>
<path d="M107.398 88.739C107.976 88.739 108.467 88.7956 108.875 88.9056C109.281 89.0155 109.614 89.1915 109.868 89.4304C110.123 89.6723 110.305 89.9803 110.421 90.3574C110.534 90.7376 110.591 91.2027 110.591 91.7495V93.7105C110.591 94.2604 110.534 94.7224 110.421 95.1057C110.308 95.4923 110.126 95.8002 109.868 96.0391C109.614 96.2779 109.284 96.4507 108.875 96.5576C108.467 96.6644 107.98 96.7147 107.398 96.7147H103.875C103.3 96.7147 102.807 96.6644 102.405 96.5576C102.002 96.4507 101.676 96.2779 101.421 96.0391C101.167 95.8002 100.978 95.4891 100.862 95.1057C100.742 94.7224 100.686 94.2604 100.686 93.7105V91.7495C100.686 91.2027 100.742 90.7376 100.862 90.3574C100.978 89.9803 101.167 89.6692 101.421 89.4304C101.676 89.1915 102.006 89.0155 102.405 88.9056C102.81 88.7956 103.3 88.739 103.875 88.739H107.398ZM102.43 93.5848C102.43 93.8802 102.452 94.1284 102.505 94.3327C102.556 94.5338 102.634 94.6941 102.75 94.8135C102.86 94.9297 103.018 95.0146 103.209 95.0617C103.404 95.112 103.649 95.1372 103.945 95.1372H107.332C107.628 95.1372 107.873 95.1152 108.068 95.0617C108.262 95.0115 108.413 94.9297 108.529 94.8135C108.646 94.6941 108.724 94.5338 108.775 94.3327C108.825 94.1284 108.85 93.8833 108.85 93.5848V91.8752C108.85 91.5767 108.825 91.3284 108.775 91.1273C108.724 90.9262 108.646 90.7659 108.529 90.6465C108.413 90.5302 108.262 90.4454 108.068 90.3951C107.873 90.348 107.628 90.3228 107.332 90.3228H103.945C103.649 90.3228 103.404 90.348 103.209 90.3951C103.014 90.4454 102.86 90.5302 102.75 90.6465C102.634 90.7659 102.552 90.9262 102.505 91.1273C102.455 91.3284 102.43 91.5767 102.43 91.8752V93.5848Z" fill="white"/>
<path d="M120.38 88.739C120.546 88.739 120.631 88.8239 120.631 88.9904V90.0746C120.631 90.2411 120.546 90.326 120.38 90.326H114.67C114.45 90.326 114.293 90.3825 114.205 90.4957C114.114 90.6088 114.067 90.7659 114.067 90.9608V91.3504C114.067 91.7747 114.261 91.9884 114.657 91.9884H118.934C119.597 91.9884 120.094 92.1581 120.427 92.4974C120.76 92.8337 120.93 93.3176 120.93 93.9493V94.8606C120.93 95.4137 120.766 95.8631 120.44 96.2056C120.113 96.5482 119.604 96.7178 118.912 96.7178H112.599C112.426 96.7178 112.338 96.6361 112.338 96.4696V95.3854C112.338 95.2189 112.426 95.1372 112.599 95.1372H118.582C118.802 95.1372 118.959 95.0775 119.051 94.9675C119.142 94.8543 119.189 94.6972 119.189 94.4992V94.0341C119.189 93.6068 118.991 93.3962 118.598 93.3962H114.321C113.658 93.3962 113.162 93.2265 112.828 92.8903C112.495 92.554 112.326 92.0669 112.326 91.4384V90.6057C112.326 90.0526 112.489 89.6032 112.816 89.2607C113.143 88.9181 113.652 88.7484 114.343 88.7484H120.38V88.739Z" fill="white"/>
<path d="M49.8086 0.252136H0.929932V26.7907H39.6425C47.546 26.7907 52.7374 27.8025 52.7374 40.4512C52.7374 53.0966 47.3197 54.2248 39.6425 54.2248H0.929932V80.647H49.8086C61.2222 80.647 77.3653 75.6819 77.3653 40.4512C77.3653 5.22044 61.2222 0.252136 49.8086 0.252136Z" fill="white"/>
<path d="M101.883 42.6006C91.3745 42.6006 82.8708 51.0791 82.8708 61.6254C82.8708 72.1371 91.3745 80.6439 101.883 80.6439C112.366 80.6439 120.927 72.134 120.927 61.6254C120.927 51.0791 112.37 42.6006 101.883 42.6006Z" fill="#00B8B1"/>
</svg>