<svg width="24" height="24" viewBox="0 0 24 24" fill="none" xmlns="http://www.w3.org/2000/svg">
<path d="M24 0H-3.81973e-07V24H24V0Z" fill="white"/>
<path fill-rule="evenodd" clip-rule="evenodd" d="M12.3185 20.1669C9.68233 17.4655 5.19859 13.6308 5.4366 9.45951C5.82598 6.06829 8.75859 3.43262 12.3185 3.43262C15.8785 3.43262 18.8111 6.06829 19.2005 9.45951C19.3646 14.0141 15.3137 17.1657 12.3185 20.1669Z" fill="#221F1F"/>
<path d="M15.0304 10.2981C15.0304 11.72 13.9088 12.8726 12.5253 12.8726C11.1418 12.8726 10.0203 11.72 10.0203 10.2981C10.0203 8.87628 11.1418 7.72363 12.5253 7.72363C13.9088 7.72363 15.0304 8.87628 15.0304 10.2981Z" fill="white"/>
</svg>
