<svg width="25" height="24" viewBox="0 0 25 24" fill="none" xmlns="http://www.w3.org/2000/svg">
<path d="M24.6653 0H-3.81426e-05V24H24.6653V0Z" fill="white"/>
<path d="M7.26786 9.83732C8.64842 13.6035 10.0777 15.1062 13.7136 16.7067L12.1379 18.9197C7.96267 16.9208 5.88307 13.5512 4.90365 10.9217L7.26786 9.83732Z" fill="#221F1F"/>
<path d="M8.42634 4.63762C9.16456 4.63474 9.72587 5.24901 9.67554 5.94458C9.59635 7.03917 9.68066 7.8289 9.90768 8.80779C10.0324 9.34551 9.75027 9.89163 9.30194 10.2434C8.69766 10.7175 8.23601 11.3216 7.86909 11.8417C7.36053 12.5625 5.61039 12.5107 5.22334 11.7255C4.4279 10.1116 3.88884 7.13839 5.05041 5.12961C5.23286 4.81408 5.60023 4.64867 5.98091 4.64719L8.42634 4.63762Z" fill="#221F1F"/>
<path d="M19.6321 16.5807C19.7239 15.8889 19.1457 15.2888 18.4085 15.2523C17.2483 15.1949 16.4283 15.0209 15.4266 14.6904C14.8764 14.5088 14.2684 14.7076 13.8447 15.0856C13.2737 15.5951 12.5831 15.9553 11.9923 16.2368C11.1734 16.6269 11.0174 18.274 11.7963 18.7313C13.3971 19.6711 16.4577 20.5341 18.7089 19.6866C19.0626 19.5535 19.2806 19.229 19.328 18.8723L19.6321 16.5807Z" fill="#221F1F"/>
</svg>
