<svg width="100" height="100" viewBox="0 0 100 100" fill="none" xmlns="http://www.w3.org/2000/svg">
<path d="M60.75 71.15C61.4 73.75 62.05 76.025 62.7 78.3C62.7 78.95 62.7 79.925 63.35 80.25C63.675 80.575 64.65 80.25 65.3 80.25C66.925 80.25 68.55 80.25 70.175 80.25C70.825 80.25 71.475 80.25 71.8 81.225C72.45 82.85 72.775 84.8 73.425 86.425C73.75 87.725 73.425 88.375 72.125 88.375C63.675 88.375 55.225 88.375 46.775 88.375C40.275 88.375 33.775 88.375 27.275 88.375C25.975 88.375 25.325 87.725 25.975 86.425C26.625 84.8 27.275 82.85 27.6 81.225C27.6 80.575 28.25 80.25 28.9 80.25C31.175 80.25 33.125 80.25 35.4 80.25C35.4 80.25 36.05 80.25 36.05 79.925C36.7 77 37.675 74.075 38.325 71.15C38 71.15 37.675 71.15 37.35 71.15C30.525 71.15 23.375 71.15 16.55 71.15C14.275 71.15 12.325 69.85 12 67.575C12 67.25 12 66.6 12 66.275C12 49.7 12 33.125 12 16.875C12 13.95 13.95 12 16.875 12C38.975 12 60.75 12 82.85 12C85.775 12 87.725 13.95 87.725 16.875C87.725 33.45 87.725 50.025 87.725 66.6C87.725 69.525 85.775 71.475 82.85 71.475C76.025 71.475 68.875 71.475 62.05 71.475C62.05 71.475 61.4 71.475 61.075 71.475L60.75 71.15ZM14.275 59.45H84.8C84.8 59.125 84.8 58.8 84.8 58.475C84.8 44.825 84.8 30.85 84.8 17.2C84.8 15.25 84.15 14.275 81.875 14.275C60.1 14.275 38.325 14.275 16.875 14.275C14.925 14.275 14.275 14.925 14.275 16.875C14.275 30.525 14.275 44.5 14.275 58.15C14.275 58.15 14.275 58.8 14.275 59.125V59.45ZM14.6 61.725C14.6 63.025 14.6 64.65 14.6 65.95C14.6 68.225 15.25 68.875 17.525 68.875C39.3 68.875 60.75 68.875 82.525 68.875C82.85 68.875 83.175 68.875 83.5 68.875C84.475 68.875 85.125 68.225 85.125 67.25C85.125 65.625 85.125 63.675 85.125 62.05H14.6V61.725ZM60.75 80.25C60.75 80.25 60.75 79.925 60.75 79.6C60.1 77 59.45 74.4 58.8 71.475C58.8 70.825 58.475 70.825 57.825 70.825C52.3 70.825 47.1 70.825 41.575 70.825C40.925 70.825 40.925 70.825 40.6 71.475C39.95 74.075 39.3 77 38.325 79.6C38.325 79.6 38.325 79.925 38.325 80.25H60.75ZM28.25 86.1H70.825C70.825 85.125 70.175 84.15 70.175 83.5C70.175 82.85 69.85 82.525 69.2 82.525C56.2 82.525 43.525 82.525 30.525 82.525C30.525 82.525 30.525 82.525 30.2 82.525C30.2 82.525 29.875 82.525 29.875 82.85C29.55 83.825 29.225 84.8 28.9 86.1H28.25Z" fill="#00B8B1"/>
<path d="M49.7 17.85C59.775 17.85 69.525 17.85 79.6 17.85C81.225 17.85 81.55 17.85 81.55 19.8C81.55 27.6 81.55 35.4 81.55 43.2C81.55 44.825 81.55 45.15 79.6 45.15C59.775 45.15 39.625 45.15 19.8 45.15C18.5 45.15 17.85 44.825 17.85 43.2C17.85 35.4 17.85 27.275 17.85 19.475C17.85 17.85 17.85 17.85 19.475 17.85C29.55 17.85 39.625 17.85 49.7 17.85ZM48.4 42.55V20.125H20.125V42.55H48.4ZM79.275 20.125H51V42.55H79.275V20.125Z" fill="#00B8B1"/>
<path d="M67.9 53.6C66.925 53.6 65.95 53.6 64.975 53.6C64 53.6 63.675 53.275 63.675 52.3C63.675 51.65 64 51 64.975 51C66.925 51 68.875 51 70.825 51C71.8 51 72.125 51.65 72.125 52.3C72.125 52.95 71.475 53.275 70.825 53.275C69.85 53.275 68.875 53.275 67.9 53.275V53.6Z" fill="#00B8B1"/>
<path d="M31.175 53.6C30.2 53.6 29.225 53.6 28.25 53.6C27.275 53.6 26.95 53.275 26.95 52.3C26.95 51.65 27.275 51 28.25 51C30.2 51 32.15 51 34.425 51C35.075 51 35.725 51.65 35.725 52.3C35.725 52.95 35.075 53.275 34.425 53.275C33.45 53.275 32.475 53.275 31.5 53.275L31.175 53.6Z" fill="#00B8B1"/>
<path d="M43.525 53.6C42.55 53.6 41.575 53.6 40.6 53.6C39.95 53.6 39.3 53.275 39.3 52.625C39.3 51.975 39.625 51.325 40.6 51.325C42.55 51.325 44.5 51.325 46.775 51.325C47.425 51.325 48.075 51.975 48.075 52.625C48.075 53.275 47.75 53.6 46.775 53.6C45.8 53.6 44.825 53.6 43.85 53.6H43.525Z" fill="#00B8B1"/>
<path d="M55.875 53.6C54.9 53.6 53.925 53.6 52.95 53.6C51.975 53.6 51.65 53.275 51.65 52.625C51.65 51.975 51.975 51.325 52.95 51.325C54.9 51.325 56.85 51.325 58.8 51.325C59.775 51.325 60.1 51.65 60.1 52.625C60.1 53.275 59.775 53.925 58.8 53.925C57.825 53.925 56.85 53.925 55.875 53.925V53.6Z" fill="#00B8B1"/>
<path d="M78.95 53.6C78.625 53.6 77.975 53.6 77.65 53.6C77 53.6 76.35 53.275 76.35 52.3C76.35 51.65 76.675 51 77.325 51C78.3 51 79.275 51 80.25 51C80.9 51 81.55 51.65 81.55 52.3C81.55 52.95 81.225 53.275 80.25 53.275C79.925 53.275 79.275 53.275 78.95 53.275V53.6Z" fill="#00B8B1"/>
<path d="M20.45 53.6C19.8 53.6 19.475 53.6 18.825 53.6C18.175 53.6 17.85 53.275 17.85 52.625C17.85 51.975 17.85 51.325 18.825 51.325C19.8 51.325 21.1 51.325 22.075 51.325C22.725 51.325 23.05 51.975 23.05 52.625C23.05 53.275 22.725 53.6 22.075 53.6C21.425 53.6 21.1 53.6 20.45 53.6Z" fill="#00B8B1"/>
<path d="M49.7 64C51 64 52.625 64 53.925 64C54.9 64 55.225 64.325 55.225 65.3C55.225 65.95 54.9 66.6 53.925 66.6C51 66.6 48.4 66.6 45.475 66.6C44.5 66.6 44.175 66.275 44.175 65.3C44.175 64.65 44.5 64 45.475 64C46.775 64 48.4 64 49.7 64Z" fill="#00B8B1"/>
<path d="M28.9 31.5C28.9 29.875 28.9 27.925 28.9 26.3C28.9 25.65 28.9 25 29.55 25C29.875 25 30.525 25 30.85 25C33.45 26.625 36.05 28.25 38.975 29.875C40.275 30.85 40.275 31.5 38.975 32.475C36.375 34.1 33.45 36.05 30.85 37.675C29.875 38.325 28.9 37.675 28.9 36.7C28.9 35.075 28.9 33.125 28.9 31.5ZM31.175 28.25V34.75C33.125 33.775 34.75 32.475 36.375 31.5C34.425 30.525 32.8 29.225 31.175 28.25Z" fill="#00B8B1"/>
<path d="M69.85 38.975C71.475 38.975 73.1 38.975 74.725 38.975C75.7 38.975 76.025 39.3 76.025 40.275C76.025 40.925 75.7 41.575 74.725 41.575C70.825 41.575 67.25 41.575 63.35 41.575C58.15 41.575 53.925 37.675 53.6 32.15C53.275 27.275 56.85 22.725 61.725 22.075C65.95 21.425 70.175 23.375 72.125 27.275C74.075 30.85 73.425 35.725 70.5 38.65C70.5 38.65 70.175 38.975 69.85 39.3V38.975ZM63.675 38.975C67.9 38.975 71.15 35.725 71.15 31.5C71.15 27.275 67.9 24.025 63.675 24.025C59.45 24.025 56.2 27.275 56.2 31.5C56.2 35.725 59.45 38.975 63.675 38.975Z" fill="#00B8B1"/>
<path d="M63.675 28.25C65.3 28.25 66.925 29.55 66.925 31.5C66.925 33.125 65.3 34.75 63.675 34.75C62.05 34.75 60.425 33.45 60.425 31.5C60.425 29.875 61.725 28.25 63.675 28.25ZM64.325 31.825C64.325 31.825 64.325 31.825 64.325 31.5C64.325 31.5 63.675 30.85 63.35 30.85C63.025 30.85 62.375 30.85 62.375 31.5C62.375 31.825 62.375 32.475 63.025 32.15C63.35 32.15 63.675 31.825 64 31.5L64.325 31.825Z" fill="#00B8B1"/>
<path d="M70.175 29.875C70.175 30.525 69.525 31.175 68.875 31.175C68.225 31.175 67.575 30.525 67.575 29.875C67.575 29.225 68.225 28.575 68.875 28.575C69.525 28.575 70.175 29.225 70.175 29.875Z" fill="#00B8B1"/>
<path d="M58.15 28.25C58.8 28.25 59.45 28.9 59.45 29.55C59.45 30.2 58.8 30.85 58.15 30.85C57.5 30.85 56.85 30.2 56.85 29.55C56.85 28.9 57.5 28.25 58.15 28.25Z" fill="#00B8B1"/>
<path d="M61.725 36.05C61.725 36.7 61.075 37.025 60.425 37.025C59.775 37.025 59.125 36.375 59.125 35.725C59.125 35.075 59.775 34.75 60.425 34.75C61.4 34.75 61.725 35.4 61.725 36.05Z" fill="#00B8B1"/>
<path d="M63.35 24.675C64.325 24.675 64.65 25 64.65 25.65C64.65 26.3 64.325 26.95 63.35 26.95C62.375 26.95 62.05 26.625 62.05 25.65C62.05 25 62.375 24.35 63.35 24.35V24.675Z" fill="#00B8B1"/>
<path d="M66.925 34.75C67.575 34.75 68.225 35.075 68.225 35.725C68.225 36.375 67.575 37.025 66.925 37.025C66.275 37.025 65.95 36.375 65.95 36.05C65.95 35.4 66.6 34.75 67.25 34.75H66.925Z" fill="#00B8B1"/>
</svg>
