<svg width="100" height="100" viewBox="0 0 100 100" fill="none" xmlns="http://www.w3.org/2000/svg">
<path d="M10.4 69.05C10.4 69.05 10.4 68.7 10.4 68.35C11.8 63.8 13.2 59.25 14.6 54.35C14.6 54.35 14.6 54.35 14.6 54C14.6 54 14.25 54 13.9 54C12.85 54 12.5 53.65 12.5 52.6C12.5 50.5 12.5 48.05 12.5 45.95C12.5 44.9 12.85 44.55 13.9 44.55C14.95 44.55 16 44.55 17.05 44.55C17.05 43.3833 17.8667 42.6833 19.5 42.45C19.5 42.45 19.5 41.75 19.5 41.4C19.5 39.65 19.5 37.9 19.5 35.8C19.5 33.7 20.55 32.65 22.65 32.65C23.7 32.65 24.75 32.65 26.15 32.65V31.6C26.15 25.65 26.15 20.05 26.15 14.1C26.15 12.35 26.15 12 28.25 12C31.05 12 33.85 12 36.65 12C36.65 12 37 12 37.35 12C38.05 12 38.75 12.7 38.75 13.4C38.75 14.1 38.05 14.45 37.35 14.45C34.9 14.45 32.45 14.45 30 14.45C29.65 14.45 28.95 14.45 28.6 14.45V42.1C28.6 42.1 29.3 42.1 29.65 42.1C39.1 42.1 48.2 42.1 57.65 42.1C58.7 42.1 59.4 42.45 59.4 43.15C59.4 43.85 58.7 44.2 57.65 44.2C45.4 44.2 33.15 44.2 20.9 44.2H19.85V51.2H20.9C23.7 51.2 26.85 51.2 29.65 51.2C30.7 51.2 31.05 51.55 31.05 52.25C31.05 52.95 30.35 53.3 29.3 53.3C25.45 53.3 21.6 53.3 17.75 53.3C17.05 53.3 16.7 53.3 16.7 54C15.3 58.55 13.9 63.45 12.5 68C12.5 68.35 12.5 69.05 12.5 69.4C12.5 72.2 12.5 75 12.5 77.45C12.5 77.45 12.5 78.15 12.5 78.5H88.8C88.8 78.5 88.8 78.15 88.8 77.8C88.8 76.75 88.8 75.7 88.8 75C88.8 70.8 88.8 66.6 87.05 62.75C86 59.95 85.3 56.8 84.25 54C84.25 53.3 83.9 52.95 83.2 52.95C67.45 52.95 52.05 52.95 36.3 52.95C36.3 52.95 35.6 52.95 35.25 52.95C34.55 52.95 34.2 52.25 34.2 51.9C34.2 51.2 34.55 50.85 35.25 50.85H35.95C50.65 50.85 65.35 50.85 80.05 50.85C80.05 50.85 80.75 50.85 81.1 50.85V43.85C81.1 43.85 80.4 43.85 80.05 43.85C74.8 43.85 69.55 43.85 64.3 43.85C64.3 43.85 63.95 43.85 63.6 43.85C62.9 43.85 62.2 43.15 62.2 42.8C62.2 42.1 62.55 41.75 63.6 41.75C65.35 41.75 66.75 41.75 68.5 41.75C69.9 41.75 70.95 41.75 72.35 41.75V14.45C72.35 14.45 71.65 14.45 71.3 14.45C62.2 14.45 52.75 14.45 43.65 14.45C42.6 14.45 41.9 14.1 41.9 13.4C41.9 12.7 42.6 12.35 43.65 12.35C53.45 12.35 63.25 12.35 73.05 12.35C74.45 12.35 74.8 12.35 74.8 14.1C74.8 20.05 74.8 26 74.8 31.95V33C75.5 33 75.85 33 76.55 33C80.4 33 81.45 33.7 81.45 37.9C81.45 39.3 81.45 41.05 81.45 42.8C82.85 42.8 84.25 42.8 83.9 44.9C84.95 44.9 85.65 44.9 86.7 44.9C88.45 44.9 88.8 44.9 88.8 47C88.8 48.75 88.8 50.85 88.8 52.6C88.8 54.35 88.8 54.7 86.7 54.7C86.7 54.7 86.7 55.05 86.7 55.4C88.1 59.95 89.5 64.5 90.9 69.05C90.9 69.05 90.9 69.4 90.9 69.75V82C89.85 83.05 88.45 82.35 87.4 82.7C87.4 83.75 87.4 84.8 87.4 85.85C87.4 86.9 87.05 87.25 86 87.25C84.6 87.25 83.2 87.25 81.8 87.25C81.1 87.25 80.4 86.9 80.4 86.2C80.4 85.15 79.7 84.45 79.35 83.4C79.35 82.7 78.65 82.35 77.95 82.35C61.85 82.35 45.75 82.35 29.3 82.35C26.85 82.35 24.75 82.35 22.3 82.35C21.95 82.35 21.6 82.35 21.25 83.05C21.25 84.1 20.55 85.15 20.2 86.2C20.2 86.9 19.5 87.25 18.45 87.25C17.05 87.25 15.65 87.25 14.25 87.25C13.2 87.25 12.5 86.9 12.5 85.5C12.5 84.45 12.5 83.4 12.5 82.35C11.8 82.35 11.45 82.35 10.75 82.35C10.05 82.35 9.35 82.35 9 81.65C9 77.45 9 73.6 9 69.4L10.4 69.05ZM26.85 42.45V35.1C25.8 35.1 24.75 35.1 23.35 35.1C22.65 35.1 22.65 35.1 22.65 36.15C22.65 37.9 22.65 40 22.65 41.75C22.65 41.75 22.65 42.1 22.65 42.45H26.85ZM75.5 42.45H79.7C79.7 40.35 79.7 37.9 79.7 35.8C79.7 35.8 79.7 35.45 79.35 35.45C78.3 35.45 76.9 35.45 75.85 35.45V42.45H75.5ZM15.3 46.65V51.55H17.75V46.65H15.3ZM86.7 46.65H84.25V51.55H86.7V46.65ZM16.35 84.45C17.05 84.45 18.1 84.45 18.8 84.45C18.8 84.45 18.8 84.45 19.15 84.45C19.15 83.75 19.5 83.05 19.85 82.35H16.35V84.8V84.45ZM85.65 84.45V82H82.15C82.15 84.1 82.5 84.45 84.6 84.45C84.6 84.45 85.3 84.45 85.65 84.45Z" fill="#00B8B1"/>
<path d="M51 77.1C39.8 77.1 28.25 77.1 17.05 77.1C15.3 77.1 15.3 77.1 15.3 75.35C15.3 71.85 15.3 68.35 16.7 64.85C17.4 62.75 18.1 60.3 18.45 58.2C18.45 57.15 19.15 56.8 20.2 56.8C40.85 56.8 61.15 56.8 81.8 56.8C82.85 56.8 83.2 56.8 83.55 58.2C84.6 62.05 85.65 65.55 86.7 69.4C86.7 70.1 86.7 70.8 86.7 71.5C86.7 72.9 86.7 74.3 86.7 75.7C86.7 77.45 86.7 77.45 84.6 77.45C73.4 77.45 62.2 77.45 50.65 77.45L51 77.1ZM84.25 74.65C84.25 72.9 84.25 71.15 84.25 69.75C83.55 66.25 82.5 63.1 81.45 59.6C81.45 58.9 81.1 58.9 80.4 58.9C74.8 58.9 68.85 58.9 63.25 58.9C49.25 58.9 35.6 58.9 21.6 58.9C20.9 58.9 20.55 58.9 20.55 59.95C19.85 63.1 18.8 66.25 18.1 69.4C17.75 71.15 18.1 72.9 17.75 74.65H84.6H84.25Z" fill="#00B8B1"/>
<path d="M51 70.45C55.55 70.45 59.75 70.45 64.3 70.45C65 70.45 65.35 70.45 65.7 71.15C66.05 71.85 65.7 72.55 64.65 72.9H63.95C55.2 72.9 46.45 72.9 38.05 72.9H37.35C36.65 72.9 36.3 72.2 36.3 71.5C36.3 70.8 36.65 70.45 37.35 70.45C37.35 70.45 37.7 70.45 38.05 70.45C42.25 70.45 46.8 70.45 51 70.45Z" fill="#00B8B1"/>
<path d="M79 70.45C79.7 70.45 80.05 70.45 80.75 70.45C81.45 70.45 81.8 70.8 81.8 71.5C81.8 72.2 81.45 72.55 80.75 72.55C79.7 72.55 78.65 72.55 77.6 72.55C76.9 72.55 76.55 71.85 76.55 71.5C76.55 70.8 76.9 70.45 77.95 70.45C78.3 70.45 79 70.45 79.35 70.45H79Z" fill="#00B8B1"/>
<path d="M70.95 70.45C71.65 70.45 72 70.45 72.7 70.45C73.4 70.45 74.1 71.15 73.75 71.5C73.75 72.2 73.4 72.55 72.7 72.55C71.65 72.55 70.6 72.55 69.55 72.55C68.85 72.55 68.5 71.85 68.5 71.5C68.5 70.8 68.85 70.45 69.55 70.45C70.25 70.45 70.6 70.45 71.3 70.45H70.95Z" fill="#00B8B1"/>
<path d="M31.05 70.45C31.75 70.45 32.1 70.45 32.8 70.45C33.5 70.45 33.85 70.8 33.85 71.5C33.85 72.2 33.5 72.55 32.8 72.55C31.75 72.55 30.7 72.55 29.65 72.55C28.95 72.55 28.6 71.85 28.6 71.5C28.6 70.8 28.95 70.45 30 70.45C30.7 70.45 31.05 70.45 31.75 70.45H31.05Z" fill="#00B8B1"/>
<path d="M23 72.9C22.3 72.9 21.95 72.9 21.25 72.9C20.55 72.9 20.2 72.2 20.2 71.85C20.2 71.15 20.55 70.8 21.6 70.8C22.65 70.8 23.7 70.8 24.75 70.8C25.45 70.8 26.15 71.15 26.15 71.85C26.15 72.55 25.8 72.9 25.1 72.9C24.75 72.9 24.05 72.9 23.35 72.9H23Z" fill="#00B8B1"/>
<path d="M26.85 62.75C26.15 62.75 25.8 62.75 25.1 62.75C24.4 62.75 24.05 62.4 24.05 61.7C24.05 61 24.4 60.65 25.1 60.3C26.15 60.3 27.2 60.3 28.25 60.3C28.95 60.3 29.3 61 29.3 61.35C29.3 62.05 28.95 62.4 28.25 62.4C27.55 62.4 27.2 62.4 26.5 62.4L26.85 62.75Z" fill="#00B8B1"/>
<path d="M42.95 62.75C42.25 62.75 41.9 62.75 41.2 62.75C40.5 62.75 40.15 62.4 40.15 61.7C40.15 61 40.15 60.65 41.2 60.65C42.25 60.65 43.65 60.65 44.7 60.65C45.4 60.65 45.75 61 45.75 61.7C45.75 62.4 45.4 62.75 44.7 62.75C44 62.75 43.65 62.75 42.95 62.75Z" fill="#00B8B1"/>
<path d="M59.05 62.75C58.35 62.75 58 62.75 57.3 62.75C56.6 62.75 56.25 62.4 56.25 61.7C56.25 61 56.6 60.65 57.3 60.3C58.35 60.3 59.75 60.3 60.8 60.3C61.5 60.3 61.85 60.65 61.85 61.35C61.85 62.05 61.5 62.4 60.8 62.4C60.1 62.4 59.75 62.4 59.05 62.4V62.75Z" fill="#00B8B1"/>
<path d="M75.15 62.75C74.45 62.75 74.1 62.75 73.4 62.75C72.7 62.75 72.35 62.4 72.35 61.7C72.35 61 72.35 60.65 73.4 60.3C74.45 60.3 75.85 60.3 76.9 60.3C77.6 60.3 77.95 61 77.95 61.35C77.95 62.05 77.6 62.4 76.9 62.4C76.2 62.4 75.85 62.4 75.15 62.4V62.75Z" fill="#00B8B1"/>
<path d="M34.9 62.75C34.2 62.75 33.85 62.75 33.15 62.75C32.45 62.75 32.1 62.4 32.1 61.7C32.1 61 32.1 60.65 33.15 60.3C34.2 60.3 35.6 60.3 36.65 60.3C37.35 60.3 37.7 61 37.7 61.7C37.7 62.4 37.35 62.75 36.65 62.75C35.95 62.75 35.6 62.75 34.9 62.75Z" fill="#00B8B1"/>
<path d="M51 62.75C50.3 62.75 49.95 62.75 49.25 62.75C48.55 62.75 48.2 62.4 48.2 61.7C48.2 61 48.2 60.65 49.25 60.65C50.3 60.65 51.7 60.65 52.75 60.65C53.45 60.65 53.8 61.35 53.8 61.7C53.8 62.4 53.45 62.75 52.75 62.75C52.05 62.75 51.7 62.75 51 62.75Z" fill="#00B8B1"/>
<path d="M67.1 62.75C66.4 62.75 66.05 62.75 65.35 62.75C64.65 62.75 64.3 62.4 64.3 61.7C64.3 61 64.65 60.65 65.35 60.65C66.4 60.65 67.8 60.65 68.85 60.65C69.55 60.65 69.9 61.35 69.9 61.7C69.9 62.4 69.55 62.75 68.85 62.75C68.15 62.75 67.8 62.75 67.1 62.75Z" fill="#00B8B1"/>
<path d="M70.95 65.2C71.65 65.2 72 65.2 72.7 65.2C73.4 65.2 73.75 65.55 73.75 66.25C73.75 66.95 73.75 67.3 72.7 67.3C71.65 67.3 70.25 67.3 69.2 67.3C68.5 67.3 68.15 66.6 68.15 65.9C68.15 65.2 68.5 64.85 69.2 64.85C69.9 64.85 70.25 64.85 70.95 64.85V65.2Z" fill="#00B8B1"/>
<path d="M79 67.65C78.3 67.65 77.95 67.65 77.25 67.65C76.55 67.65 76.2 66.95 76.2 66.6C76.2 65.9 76.55 65.55 77.6 65.55C78.65 65.55 79.7 65.55 80.75 65.55C81.45 65.55 81.8 65.9 82.15 66.6C82.15 67.3 81.8 67.65 81.1 67.65C80.75 67.65 80.05 67.65 79.35 67.65H79Z" fill="#00B8B1"/>
<path d="M39.1 65.2C39.8 65.2 40.15 65.2 40.85 65.2C41.55 65.2 41.9 65.55 41.9 66.25C41.9 66.95 41.9 67.3 40.85 67.3C39.8 67.3 38.4 67.3 37.35 67.3C36.65 67.3 36.3 66.6 36.3 66.25C36.3 65.55 36.65 65.2 37.35 65.2C38.05 65.2 38.4 65.2 39.1 65.2Z" fill="#00B8B1"/>
<path d="M31.05 65.2C31.75 65.2 32.1 65.2 32.8 65.2C33.5 65.2 33.85 65.55 33.85 66.25C33.85 66.95 33.5 67.3 32.8 67.65C31.75 67.65 30.7 67.65 29.3 67.65C28.6 67.65 28.25 66.95 28.25 66.6C28.25 65.9 28.6 65.55 29.3 65.55C29.65 65.55 30.35 65.55 31.05 65.55V65.2Z" fill="#00B8B1"/>
<path d="M23 65.2C23.7 65.2 24.05 65.2 24.75 65.2C25.45 65.2 25.8 65.55 25.8 66.25C25.8 66.95 25.8 67.3 24.75 67.3C23.7 67.3 22.3 67.3 21.25 67.3C20.55 67.3 20.2 66.6 20.2 66.25C20.2 65.55 20.55 65.2 21.25 65.2C21.95 65.2 22.3 65.2 23 65.2Z" fill="#00B8B1"/>
<path d="M62.9 65.2C63.6 65.2 63.95 65.2 64.65 65.2C65.35 65.2 65.7 65.55 65.7 66.25C65.7 66.95 65.35 67.3 64.65 67.3C63.6 67.3 62.55 67.3 61.15 67.3C60.45 67.3 60.1 66.6 60.1 65.9C60.1 65.2 60.45 64.85 61.15 64.85C61.85 64.85 62.2 64.85 62.9 64.85V65.2Z" fill="#00B8B1"/>
<path d="M55.2 65.2C55.9 65.2 56.25 65.2 56.95 65.2C57.65 65.2 58 65.55 58 66.25C58 66.95 58 67.3 56.95 67.3C55.9 67.3 54.5 67.3 53.45 67.3C52.75 67.3 52.4 66.6 52.4 66.25C52.4 65.55 52.75 65.2 53.45 65.2C54.15 65.2 54.5 65.2 55.2 65.2Z" fill="#00B8B1"/>
<path d="M47.15 67.65C46.45 67.65 46.1 67.65 45.4 67.65C44.7 67.65 44.35 66.95 44.35 66.6C44.35 65.9 44.7 65.55 45.75 65.55C46.8 65.55 47.85 65.55 48.9 65.55C49.6 65.55 49.95 65.9 50.3 66.6C50.3 67.3 49.95 67.65 49.25 67.65C48.9 67.65 48.2 67.65 47.5 67.65H47.15Z" fill="#00B8B1"/>
</svg>
