<svg width="25" height="24" viewBox="0 0 25 24" fill="none" xmlns="http://www.w3.org/2000/svg">
<path d="M24.8547 12.0003C24.8547 18.061 20.3618 23.0713 14.5256 23.8846C13.9797 23.9606 13.4213 24 12.8547 24C12.2003 24 11.5584 23.9475 10.9324 23.8466C5.21912 22.9269 0.854736 17.9725 0.854736 11.9997C0.854736 5.37241 6.22728 0 12.8547 0C19.4822 0 24.8547 5.37241 24.8547 11.9997V12.0003Z" fill="white" fill-opacity="0.5"/>
<path d="M19.7686 7.60437C19.4356 7.94088 18.974 8.14887 18.4626 8.14887C18.3977 8.14887 18.3327 8.14541 18.2699 8.1385C18.8033 7.81858 19.2151 7.31761 19.4204 6.71991C19.4204 6.71991 19.4211 6.71991 19.4211 6.71922C19.4494 6.63906 19.4736 6.55822 19.4929 6.47461C19.0707 6.92582 18.4937 7.23124 17.8462 7.30379C17.7467 7.31554 17.6459 7.32107 17.5436 7.32107C17.5111 7.32107 17.48 7.32038 17.4489 7.3183C17.2299 7.0882 16.9687 6.89818 16.6792 6.7586C16.3565 6.60106 15.9957 6.50847 15.615 6.49672C15.5839 6.49465 15.5528 6.49396 15.5203 6.49396C15.1976 6.49396 14.8881 6.55131 14.602 6.65703C14.5287 6.68398 14.4576 6.713 14.3878 6.74686C13.4812 7.17181 12.8537 8.0929 12.8537 9.16047C12.8537 9.37951 12.8807 9.59234 12.9297 9.79549C12.652 9.78443 12.3769 9.75748 12.1075 9.7174C12.0211 9.70358 11.9347 9.68907 11.849 9.67249C11.1615 9.54466 10.5057 9.32492 9.89624 9.02642C9.35103 8.7597 8.84246 8.43079 8.38017 8.04798C7.99114 7.72737 7.63528 7.36944 7.31742 6.97834C7.3036 6.96175 7.28975 6.94448 7.27662 6.9279C7.25797 6.95623 7.24071 6.98456 7.22551 7.01427C7.003 7.40329 6.87724 7.85313 6.87724 8.33267C6.87724 8.34718 6.87722 8.36307 6.87791 8.37758C6.88344 8.7369 6.95944 9.07893 7.09557 9.38988C7.15362 9.52807 7.22412 9.65867 7.30497 9.78236C7.54336 10.1493 7.86881 10.4547 8.25301 10.6661C8.27028 10.6772 8.28825 10.6862 8.30621 10.6945C8.27857 10.7 8.25026 10.7048 8.22193 10.7076C8.14316 10.718 8.06162 10.7235 7.98008 10.7235C7.571 10.7235 7.19026 10.5956 6.87862 10.378C6.87655 10.4008 6.87653 10.4243 6.87653 10.4478C6.87653 11.2092 7.19577 11.8961 7.70712 12.3805C8.10514 12.7605 8.61995 13.0155 9.19211 13.0901C8.98619 13.1654 8.76366 13.2062 8.53218 13.2062C8.28134 13.2062 8.04087 13.1585 7.82113 13.0708C8.14866 14.1356 9.12509 14.9164 10.2887 14.9509C9.5777 15.6896 8.57916 16.1484 7.47424 16.1484C6.78738 16.1484 6.14199 15.9708 5.58228 15.6599C6.92766 16.8242 8.68212 17.5276 10.601 17.5276C14.8417 17.5276 18.2788 14.0907 18.2788 9.85007C18.2788 9.61652 18.2685 9.38573 18.2477 9.15771C18.9491 8.88062 19.5054 8.3147 19.7686 7.60506V7.60437Z" fill="#221F1F"/>
</svg>
